<svg id="svg" xmlns="http://www.w3.org/2000/svg" xmlns:xlink="http://www.w3.org/1999/xlink" width="400" height="170.66666666666666" viewBox="0, 0, 400,170.66666666666666"><g id="svgg"><path id="path0" d="M332.489 11.999 C 332.524 12.179,332.641 12.434,332.750 12.565 C 332.859 12.697,332.881 12.807,332.799 12.810 C 332.717 12.813,332.771 12.909,332.918 13.023 C 333.065 13.137,333.295 13.481,333.429 13.786 C 333.563 14.091,333.731 14.341,333.802 14.341 C 333.873 14.341,333.931 14.494,333.931 14.682 C 333.931 14.870,334.008 15.023,334.102 15.023 C 334.195 15.023,334.272 15.139,334.272 15.280 C 334.272 15.439,334.111 15.536,333.845 15.536 C 333.595 15.536,333.436 15.447,333.461 15.322 C 333.494 15.160,332.856 15.097,330.815 15.062 C 329.215 15.034,328.126 14.947,328.126 14.848 C 328.126 14.619,318.622 14.623,318.481 14.853 C 318.417 14.955,317.254 15.023,315.563 15.023 C 313.221 15.023,312.734 15.066,312.652 15.280 C 312.573 15.485,312.190 15.536,310.694 15.536 C 309.569 15.536,308.835 15.603,308.835 15.706 C 308.835 15.808,308.209 15.877,307.298 15.877 C 306.388 15.877,305.762 15.947,305.762 16.048 C 305.762 16.146,305.233 16.219,304.516 16.219 C 303.830 16.219,303.196 16.290,303.107 16.378 C 303.018 16.466,302.503 16.562,301.963 16.591 C 301.423 16.620,300.982 16.701,300.982 16.772 C 300.982 16.843,300.521 16.901,299.957 16.901 C 299.161 16.901,298.933 16.958,298.933 17.157 C 298.933 17.354,298.715 17.414,297.994 17.414 C 297.478 17.414,297.055 17.490,297.055 17.584 C 297.055 17.678,296.637 17.755,296.126 17.755 C 295.615 17.755,295.150 17.832,295.092 17.926 C 295.034 18.020,294.622 18.096,294.177 18.096 C 293.732 18.096,293.294 18.170,293.205 18.259 C 293.116 18.348,292.754 18.441,292.403 18.465 C 292.015 18.491,291.763 18.595,291.763 18.729 C 291.763 18.880,291.494 18.950,290.909 18.950 C 290.440 18.950,290.055 19.027,290.055 19.121 C 290.055 19.215,289.753 19.292,289.383 19.292 C 289.013 19.292,288.662 19.368,288.604 19.462 C 288.546 19.556,288.239 19.633,287.921 19.633 C 287.604 19.633,287.297 19.710,287.239 19.804 C 287.181 19.898,286.828 19.974,286.455 19.974 C 286.010 19.974,285.743 20.062,285.678 20.230 C 285.619 20.387,285.360 20.487,285.015 20.487 C 284.704 20.487,284.425 20.560,284.393 20.649 C 284.362 20.738,284.010 20.830,283.611 20.853 C 283.212 20.876,282.885 20.957,282.885 21.032 C 282.885 21.108,282.612 21.169,282.278 21.169 C 281.916 21.169,281.713 21.239,281.776 21.340 C 281.838 21.441,281.640 21.511,281.288 21.511 C 280.961 21.511,280.669 21.580,280.637 21.664 C 280.606 21.748,280.282 21.856,279.917 21.904 C 279.553 21.952,279.207 22.068,279.149 22.161 C 279.091 22.254,278.813 22.356,278.532 22.389 C 278.250 22.422,277.980 22.502,277.931 22.566 C 277.882 22.631,277.636 22.711,277.383 22.745 C 277.130 22.779,276.869 22.861,276.803 22.927 C 276.736 22.993,276.471 23.047,276.213 23.047 C 275.955 23.047,275.717 23.128,275.684 23.226 C 275.651 23.324,275.453 23.417,275.243 23.433 C 275.033 23.449,274.861 23.526,274.861 23.606 C 274.861 23.685,274.784 23.703,274.691 23.645 C 274.597 23.587,274.520 23.621,274.520 23.720 C 274.520 23.820,274.251 23.901,273.922 23.901 C 273.594 23.901,273.325 23.978,273.325 24.072 C 273.325 24.166,273.171 24.242,272.983 24.242 C 272.796 24.242,272.642 24.319,272.642 24.413 C 272.642 24.507,272.427 24.584,272.164 24.584 C 271.901 24.584,271.613 24.656,271.524 24.744 C 271.434 24.832,271.131 24.938,270.849 24.978 C 270.568 25.019,270.356 25.139,270.380 25.245 C 270.403 25.351,270.235 25.437,270.006 25.437 C 269.777 25.437,269.542 25.514,269.484 25.608 C 269.426 25.702,269.152 25.779,268.876 25.779 C 268.600 25.779,268.374 25.847,268.374 25.930 C 268.374 26.013,268.163 26.123,267.904 26.175 C 266.748 26.404,266.243 26.591,266.283 26.775 C 266.306 26.884,266.149 26.974,265.933 26.974 C 265.717 26.974,265.464 27.050,265.370 27.144 C 265.277 27.237,264.993 27.331,264.739 27.352 C 264.484 27.373,264.277 27.450,264.277 27.523 C 264.277 27.597,264.127 27.657,263.945 27.657 C 263.763 27.657,263.566 27.734,263.508 27.828 C 263.450 27.921,263.172 27.998,262.891 27.998 C 262.593 27.998,262.423 28.070,262.484 28.169 C 262.578 28.321,262.215 28.409,261.960 28.297 C 261.906 28.274,261.787 28.389,261.695 28.553 C 261.603 28.717,261.378 28.852,261.195 28.852 C 261.012 28.852,260.862 28.929,260.862 29.023 C 260.862 29.117,260.593 29.193,260.265 29.193 C 259.936 29.193,259.667 29.262,259.667 29.345 C 259.667 29.429,259.321 29.599,258.899 29.724 C 258.476 29.849,258.131 30.049,258.131 30.170 C 258.131 30.298,257.923 30.388,257.629 30.388 C 257.352 30.388,257.079 30.465,257.021 30.559 C 256.963 30.653,256.766 30.730,256.584 30.730 C 256.402 30.730,256.253 30.807,256.253 30.901 C 256.253 30.994,256.104 31.071,255.921 31.071 C 255.739 31.071,255.542 31.148,255.484 31.242 C 255.426 31.336,255.230 31.413,255.048 31.413 C 254.865 31.413,254.716 31.528,254.716 31.669 C 254.716 31.890,254.181 32.029,253.649 31.945 C 253.579 31.934,253.521 32.002,253.521 32.096 C 253.521 32.190,253.367 32.266,253.180 32.266 C 252.992 32.266,252.838 32.331,252.838 32.410 C 252.838 32.489,252.512 32.659,252.113 32.789 C 251.714 32.918,251.285 33.123,251.160 33.244 C 251.035 33.365,250.870 33.426,250.794 33.379 C 250.717 33.331,250.611 33.407,250.557 33.548 C 250.503 33.688,250.303 33.803,250.112 33.803 C 249.921 33.803,249.765 33.880,249.765 33.974 C 249.765 34.067,249.573 34.144,249.338 34.144 C 249.104 34.144,248.912 34.221,248.912 34.315 C 248.912 34.409,248.758 34.486,248.570 34.486 C 248.382 34.486,248.229 34.554,248.229 34.638 C 248.229 34.722,248.034 34.839,247.795 34.899 C 247.556 34.959,247.407 35.082,247.464 35.174 C 247.523 35.269,247.304 35.339,246.948 35.339 C 246.580 35.339,246.373 35.408,246.436 35.510 C 246.494 35.604,246.422 35.690,246.276 35.702 C 245.868 35.735,245.783 35.762,245.369 35.992 C 245.158 36.109,244.985 36.158,244.985 36.101 C 244.985 36.044,244.864 36.119,244.715 36.268 C 244.567 36.416,244.363 36.487,244.262 36.424 C 244.150 36.355,244.129 36.392,244.208 36.519 C 244.290 36.652,244.206 36.762,243.978 36.822 C 243.781 36.873,243.619 36.983,243.619 37.066 C 243.619 37.149,243.466 37.217,243.278 37.217 C 243.090 37.217,242.936 37.294,242.936 37.388 C 242.936 37.482,242.744 37.559,242.510 37.559 C 242.275 37.559,242.083 37.636,242.083 37.729 C 242.083 37.823,241.962 37.900,241.815 37.900 C 241.667 37.900,241.430 38.016,241.289 38.158 C 241.147 38.299,240.968 38.377,240.892 38.329 C 240.815 38.282,240.709 38.358,240.655 38.499 C 240.601 38.639,240.401 38.754,240.210 38.754 C 240.019 38.754,239.863 38.831,239.863 38.924 C 239.863 39.018,239.714 39.095,239.532 39.095 C 239.350 39.095,239.153 39.172,239.095 39.266 C 239.037 39.360,238.883 39.437,238.752 39.437 C 238.622 39.437,238.308 39.629,238.055 39.863 C 237.801 40.098,237.430 40.290,237.230 40.290 C 237.030 40.290,236.755 40.444,236.620 40.632 C 236.484 40.819,236.199 40.973,235.985 40.973 C 235.770 40.973,235.595 41.050,235.595 41.144 C 235.595 41.238,235.442 41.315,235.254 41.315 C 235.064 41.315,234.913 41.428,234.913 41.571 C 234.913 41.730,234.751 41.827,234.486 41.827 C 234.251 41.827,234.059 41.904,234.059 41.997 C 234.059 42.091,233.901 42.168,233.707 42.168 C 233.514 42.168,233.403 42.245,233.461 42.339 C 233.519 42.433,233.454 42.510,233.315 42.510 C 233.176 42.510,233.036 42.590,233.004 42.688 C 232.971 42.786,232.772 42.879,232.563 42.895 C 232.353 42.911,232.181 42.984,232.181 43.058 C 232.181 43.132,232.104 43.192,232.010 43.192 C 231.916 43.192,231.683 43.349,231.492 43.540 C 231.301 43.731,231.080 43.848,231.003 43.800 C 230.925 43.752,230.723 43.865,230.555 44.050 C 230.388 44.236,230.117 44.388,229.953 44.388 C 229.790 44.388,229.611 44.508,229.554 44.654 C 229.498 44.801,229.374 44.874,229.280 44.815 C 229.185 44.757,229.108 44.795,229.108 44.900 C 229.108 45.005,229.045 45.052,228.968 45.004 C 228.892 44.957,228.721 45.068,228.589 45.250 C 228.457 45.433,228.170 45.583,227.951 45.583 C 227.728 45.583,227.598 45.658,227.657 45.753 C 227.717 45.851,227.564 45.924,227.297 45.924 C 227.041 45.924,226.877 45.969,226.931 46.024 C 227.098 46.190,226.400 46.778,226.035 46.778 C 225.847 46.778,225.694 46.854,225.694 46.948 C 225.694 47.042,225.557 47.119,225.390 47.119 C 225.223 47.119,224.975 47.273,224.840 47.461 C 224.705 47.648,224.419 47.802,224.205 47.802 C 223.973 47.802,223.816 47.905,223.816 48.058 C 223.816 48.200,223.664 48.314,223.474 48.314 C 223.286 48.314,223.133 48.391,223.133 48.485 C 223.133 48.579,223.017 48.656,222.877 48.656 C 222.736 48.656,222.620 48.713,222.619 48.784 C 222.618 48.939,221.789 49.338,221.467 49.338 C 221.339 49.338,221.282 49.415,221.340 49.509 C 221.398 49.603,221.334 49.680,221.198 49.680 C 221.061 49.680,220.906 49.795,220.852 49.936 C 220.798 50.077,220.593 50.192,220.396 50.192 C 220.200 50.192,220.087 50.269,220.145 50.363 C 220.203 50.457,220.137 50.534,219.999 50.534 C 219.860 50.534,219.720 50.614,219.687 50.712 C 219.655 50.810,219.456 50.903,219.246 50.919 C 219.036 50.935,218.865 51.051,218.865 51.177 C 218.865 51.304,218.788 51.360,218.694 51.302 C 218.600 51.244,218.523 51.316,218.523 51.462 C 218.523 51.620,218.375 51.729,218.159 51.729 C 217.959 51.729,217.671 51.863,217.519 52.027 C 217.252 52.316,216.092 53.030,216.005 52.958 C 215.833 52.818,215.766 52.966,215.928 53.128 C 216.306 53.506,216.141 53.696,214.469 54.806 C 213.553 55.414,212.778 55.969,212.747 56.039 C 212.716 56.110,212.617 56.167,212.527 56.167 C 212.437 56.167,212.198 56.321,211.997 56.509 C 211.795 56.697,211.529 56.850,211.406 56.850 C 211.283 56.850,211.182 56.910,211.182 56.982 C 211.182 57.055,210.913 57.259,210.585 57.436 C 210.256 57.613,209.987 57.822,209.987 57.901 C 209.987 57.981,209.872 58.045,209.731 58.045 C 209.590 58.045,209.475 58.122,209.475 58.216 C 209.475 58.310,209.395 58.387,209.297 58.387 C 209.199 58.387,208.912 58.579,208.658 58.813 C 208.405 59.048,208.101 59.240,207.983 59.240 C 207.865 59.240,207.768 59.317,207.768 59.411 C 207.768 59.505,207.659 59.582,207.526 59.582 C 207.393 59.582,207.259 59.641,207.227 59.714 C 207.143 59.910,205.058 61.460,204.878 61.460 C 204.793 61.460,204.694 61.546,204.659 61.652 C 204.624 61.758,204.196 61.883,203.709 61.930 C 203.222 61.976,202.865 62.082,202.915 62.164 C 202.966 62.246,202.888 62.313,202.742 62.313 C 202.595 62.313,202.475 62.381,202.475 62.464 C 202.475 62.547,202.314 62.657,202.117 62.709 C 201.919 62.760,201.809 62.884,201.871 62.985 C 201.935 63.089,201.849 63.167,201.670 63.167 C 201.497 63.167,201.245 63.321,201.110 63.508 C 200.974 63.696,200.722 63.850,200.550 63.850 C 200.377 63.850,200.283 63.927,200.341 64.020 C 200.399 64.114,200.355 64.191,200.243 64.191 C 200.131 64.191,199.861 64.383,199.644 64.618 C 199.426 64.853,199.125 65.045,198.974 65.045 C 198.823 65.045,198.747 65.122,198.805 65.216 C 198.863 65.309,198.791 65.386,198.644 65.386 C 198.498 65.386,198.378 65.463,198.378 65.557 C 198.378 65.651,198.291 65.728,198.185 65.728 C 198.078 65.728,197.848 65.893,197.673 66.095 C 197.497 66.297,197.354 66.401,197.354 66.325 C 197.354 66.250,197.210 66.353,197.035 66.555 C 196.860 66.757,196.657 66.923,196.586 66.923 C 196.514 66.923,196.331 67.063,196.179 67.233 C 196.027 67.404,195.763 67.596,195.593 67.659 C 195.423 67.722,195.331 67.851,195.390 67.946 C 195.448 68.040,195.376 68.118,195.230 68.118 C 195.083 68.118,194.964 68.195,194.964 68.289 C 194.964 68.382,194.865 68.459,194.745 68.459 C 194.625 68.459,194.416 68.613,194.281 68.801 C 194.145 68.988,193.966 69.142,193.883 69.142 C 193.730 69.142,193.374 69.442,192.309 70.465 C 191.991 70.770,191.652 71.020,191.555 71.020 C 191.458 71.020,191.379 71.110,191.379 71.219 C 191.379 71.329,191.331 71.371,191.272 71.312 C 191.214 71.254,190.874 71.510,190.518 71.881 C 190.161 72.253,189.786 72.557,189.685 72.557 C 189.583 72.557,189.501 72.672,189.501 72.813 C 189.501 72.953,189.380 73.069,189.232 73.069 C 188.914 73.069,188.447 73.494,188.598 73.646 C 188.656 73.704,188.537 73.752,188.334 73.752 C 188.129 73.752,187.983 73.847,188.007 73.965 C 188.030 74.082,187.953 74.159,187.836 74.136 C 187.719 74.112,187.623 74.173,187.623 74.272 C 187.623 74.503,186.838 75.288,186.606 75.288 C 186.508 75.288,186.428 75.365,186.428 75.459 C 186.428 75.553,186.332 75.630,186.214 75.630 C 186.097 75.630,185.786 75.898,185.524 76.227 C 185.262 76.556,184.935 76.825,184.799 76.825 C 184.662 76.825,184.550 76.944,184.550 77.091 C 184.550 77.237,184.473 77.309,184.379 77.251 C 184.285 77.193,184.208 77.208,184.208 77.284 C 184.208 77.462,183.437 78.361,183.284 78.361 C 183.140 78.361,182.330 79.161,182.330 79.304 C 182.330 79.439,181.875 79.898,181.742 79.898 C 181.581 79.898,180.452 81.106,180.452 81.278 C 180.452 81.364,180.373 81.434,180.276 81.434 C 180.090 81.434,178.916 82.545,178.916 82.721 C 178.916 82.887,178.444 83.312,178.259 83.312 C 178.167 83.312,178.056 83.408,178.014 83.525 C 177.962 83.670,177.828 83.615,177.596 83.355 C 177.408 83.143,177.172 82.971,177.073 82.971 C 176.973 82.971,176.610 82.705,176.265 82.380 C 175.921 82.055,175.416 81.691,175.144 81.570 C 174.871 81.449,174.648 81.250,174.648 81.126 C 174.648 81.003,174.571 80.949,174.477 81.007 C 174.383 81.065,174.306 80.980,174.306 80.818 C 174.306 80.656,174.256 80.574,174.195 80.635 C 174.134 80.696,173.975 80.613,173.841 80.450 C 173.696 80.273,173.651 80.257,173.729 80.410 C 173.883 80.712,173.415 80.391,172.921 79.855 C 172.769 79.691,172.562 79.556,172.461 79.556 C 172.360 79.556,172.223 79.467,172.156 79.359 C 172.076 79.229,172.110 79.209,172.258 79.300 C 172.407 79.392,172.440 79.372,172.358 79.238 C 172.290 79.128,172.166 79.080,172.084 79.132 C 172.001 79.183,171.654 78.954,171.312 78.622 C 170.971 78.291,170.545 78.020,170.365 78.020 C 170.185 78.020,170.038 77.939,170.038 77.841 C 170.038 77.562,169.231 76.825,168.924 76.825 C 168.611 76.825,168.160 76.429,168.160 76.154 C 168.160 76.053,168.064 75.990,167.947 76.014 C 167.830 76.037,167.748 75.976,167.765 75.878 C 167.782 75.780,167.648 75.689,167.469 75.676 C 167.289 75.662,166.940 75.449,166.693 75.202 C 166.446 74.955,166.056 74.681,165.826 74.594 C 165.596 74.507,165.456 74.358,165.514 74.264 C 165.572 74.170,165.517 74.093,165.391 74.093 C 165.266 74.093,165.052 73.939,164.917 73.752 C 164.781 73.564,164.534 73.410,164.367 73.410 C 164.200 73.410,164.063 73.333,164.063 73.239 C 164.063 73.146,163.948 73.069,163.807 73.069 C 163.666 73.069,163.551 72.986,163.551 72.886 C 163.551 72.645,163.115 72.215,162.870 72.215 C 162.764 72.215,162.725 72.138,162.783 72.044 C 162.841 71.950,162.725 71.874,162.525 71.874 C 162.144 71.874,161.673 71.509,161.673 71.214 C 161.673 71.119,161.408 70.946,161.085 70.829 C 160.761 70.712,160.535 70.554,160.583 70.477 C 160.630 70.400,160.577 70.337,160.465 70.337 C 160.354 70.337,160.124 70.178,159.956 69.985 C 159.788 69.791,159.606 69.637,159.552 69.643 C 159.164 69.687,158.935 69.633,159.008 69.514 C 159.107 69.354,158.517 68.801,158.247 68.801 C 158.148 68.801,158.115 68.724,158.173 68.630 C 158.231 68.536,158.121 68.459,157.927 68.459 C 157.734 68.459,157.576 68.382,157.576 68.289 C 157.576 68.195,157.461 68.118,157.320 68.118 C 157.179 68.118,157.064 68.035,157.064 67.935 C 157.064 67.678,156.621 67.264,156.345 67.264 C 156.218 67.264,156.004 67.111,155.869 66.923 C 155.733 66.735,155.541 66.581,155.441 66.581 C 155.270 66.581,154.529 66.022,153.800 65.344 C 153.623 65.179,153.440 65.045,153.393 65.045 C 153.346 65.045,153.231 65.045,153.137 65.045 C 153.043 65.045,152.966 64.938,152.966 64.807 C 152.966 64.578,152.506 64.279,152.241 64.335 C 152.170 64.350,152.113 64.247,152.113 64.106 C 152.113 63.965,151.976 63.850,151.809 63.850 C 151.642 63.850,151.394 63.696,151.259 63.508 C 151.124 63.321,150.923 63.167,150.813 63.167 C 150.703 63.167,150.568 63.052,150.514 62.911 C 150.460 62.770,150.315 62.655,150.192 62.655 C 150.069 62.655,149.858 62.501,149.723 62.313 C 149.587 62.125,149.378 61.972,149.258 61.972 C 149.138 61.972,149.040 61.895,149.040 61.801 C 149.040 61.707,148.886 61.630,148.698 61.630 C 148.503 61.630,148.357 61.517,148.357 61.364 C 148.357 61.218,148.280 61.146,148.186 61.204 C 148.092 61.262,148.015 61.198,148.015 61.061 C 148.015 60.827,147.695 60.611,147.192 60.508 C 147.068 60.483,146.732 60.187,146.445 59.851 C 146.158 59.515,145.810 59.240,145.672 59.240 C 145.534 59.240,145.206 59.010,144.942 58.728 C 144.679 58.446,144.303 58.216,144.106 58.216 C 143.909 58.216,143.747 58.135,143.747 58.037 C 143.747 57.797,142.867 57.033,142.583 57.026 C 142.320 57.020,141.869 56.606,141.869 56.371 C 141.869 56.282,141.639 56.113,141.357 55.997 C 141.076 55.880,140.845 55.717,140.845 55.634 C 140.845 55.552,140.758 55.484,140.651 55.484 C 140.545 55.484,140.284 55.297,140.072 55.068 C 139.859 54.839,139.641 54.697,139.587 54.751 C 139.532 54.806,139.439 54.724,139.380 54.570 C 139.320 54.416,139.182 54.289,139.072 54.289 C 138.962 54.289,138.761 54.136,138.626 53.948 C 138.490 53.760,138.243 53.606,138.076 53.606 C 137.909 53.606,137.772 53.530,137.772 53.436 C 137.772 53.342,137.657 53.265,137.516 53.265 C 137.375 53.265,137.260 53.163,137.260 53.038 C 137.260 52.913,137.049 52.702,136.790 52.569 C 136.532 52.437,136.197 52.193,136.045 52.028 C 135.893 51.864,135.682 51.729,135.575 51.729 C 135.469 51.729,135.382 51.650,135.382 51.554 C 135.382 51.457,135.188 51.305,134.951 51.215 C 134.714 51.125,134.475 50.934,134.420 50.792 C 134.366 50.650,134.242 50.534,134.146 50.534 C 134.050 50.534,133.827 50.368,133.652 50.166 C 133.477 49.964,133.333 49.860,133.333 49.936 C 133.333 50.012,133.190 49.908,133.015 49.706 C 132.839 49.504,132.609 49.338,132.502 49.338 C 132.396 49.338,132.309 49.262,132.309 49.168 C 132.309 49.074,132.189 48.997,132.043 48.997 C 131.896 48.997,131.824 48.920,131.882 48.826 C 131.940 48.732,131.847 48.656,131.674 48.656 C 131.322 48.656,130.223 47.726,130.384 47.564 C 130.441 47.507,130.338 47.461,130.156 47.461 C 129.973 47.461,129.713 47.307,129.577 47.119 C 129.442 46.931,129.241 46.778,129.131 46.778 C 129.021 46.778,128.887 46.662,128.833 46.522 C 128.779 46.381,128.634 46.265,128.511 46.265 C 128.388 46.265,128.176 46.112,128.041 45.924 C 127.906 45.736,127.677 45.580,127.534 45.577 C 127.244 45.571,126.675 45.186,126.675 44.997 C 126.675 44.817,126.277 44.481,125.988 44.417 C 125.850 44.387,125.711 44.291,125.679 44.204 C 125.648 44.117,125.553 44.046,125.469 44.046 C 125.385 44.046,125.039 43.777,124.700 43.449 C 124.362 43.120,123.993 42.851,123.881 42.851 C 123.769 42.851,123.567 42.697,123.431 42.510 C 123.296 42.322,123.087 42.168,122.967 42.168 C 122.847 42.168,122.749 42.091,122.749 41.997 C 122.749 41.904,122.595 41.827,122.407 41.827 C 122.219 41.827,122.066 41.744,122.066 41.644 C 122.066 41.324,121.656 41.055,121.084 41.001 L 120.529 40.947 120.529 87.653 L 120.529 134.358 179.001 134.358 L 237.473 134.358 237.473 96.458 L 237.473 58.557 236.961 58.557 C 236.679 58.557,236.449 58.634,236.449 58.728 C 236.449 58.822,236.300 58.899,236.118 58.899 C 235.935 58.899,235.739 58.976,235.681 59.070 C 235.623 59.163,235.459 59.240,235.317 59.240 C 235.175 59.240,234.943 59.356,234.801 59.498 C 234.659 59.640,234.481 59.717,234.404 59.670 C 234.328 59.622,234.221 59.698,234.168 59.839 C 234.114 59.979,233.914 60.094,233.723 60.094 C 233.532 60.094,233.376 60.171,233.376 60.265 C 233.376 60.359,233.218 60.435,233.024 60.435 C 232.831 60.435,232.720 60.512,232.778 60.606 C 232.837 60.700,232.726 60.777,232.532 60.777 C 232.339 60.777,232.181 60.854,232.181 60.948 C 232.181 61.041,232.100 61.118,232.002 61.118 C 231.904 61.118,231.645 61.310,231.428 61.545 C 231.210 61.780,230.864 61.972,230.658 61.972 C 230.451 61.972,230.330 62.049,230.388 62.143 C 230.446 62.236,230.381 62.313,230.242 62.313 C 230.103 62.313,229.963 62.394,229.930 62.493 C 229.897 62.592,229.739 62.693,229.579 62.716 C 229.419 62.739,229.229 62.824,229.156 62.905 C 229.082 62.985,229.130 62.988,229.262 62.912 C 229.424 62.818,229.462 62.837,229.380 62.970 C 229.313 63.078,229.176 63.167,229.075 63.167 C 228.974 63.167,228.768 63.307,228.616 63.479 C 228.464 63.650,228.096 63.897,227.797 64.027 C 227.499 64.157,227.292 64.324,227.338 64.398 C 227.384 64.472,227.301 64.533,227.155 64.533 C 227.008 64.533,226.889 64.615,226.889 64.716 C 226.889 64.952,226.454 65.386,226.218 65.386 C 226.117 65.386,226.035 65.458,226.035 65.545 C 226.035 65.633,225.898 65.748,225.730 65.801 C 225.563 65.854,225.290 66.129,225.123 66.410 C 224.952 66.700,224.676 66.923,224.489 66.923 C 224.293 66.923,224.157 67.039,224.157 67.207 C 224.157 67.364,224.110 67.444,224.051 67.386 C 223.896 67.231,223.474 67.706,223.474 68.036 C 223.474 68.193,223.323 68.360,223.138 68.408 C 222.954 68.457,222.756 68.641,222.700 68.819 C 222.644 68.997,222.526 69.142,222.438 69.142 C 222.351 69.142,222.279 69.240,222.279 69.361 C 222.279 69.481,222.125 69.690,221.938 69.825 C 221.599 70.069,221.596 70.267,221.596 94.020 L 221.596 117.968 179.087 117.968 L 136.577 117.968 136.577 95.620 L 136.577 73.271 136.961 73.371 C 137.172 73.425,137.549 73.687,137.798 73.952 C 138.047 74.217,138.399 74.434,138.580 74.434 C 138.761 74.434,139.012 74.627,139.138 74.861 C 139.263 75.096,139.473 75.288,139.604 75.288 C 139.734 75.288,139.793 75.365,139.735 75.459 C 139.677 75.553,139.788 75.630,139.981 75.630 C 140.175 75.630,140.333 75.706,140.333 75.800 C 140.333 75.894,140.448 75.971,140.589 75.971 C 140.730 75.971,140.845 76.086,140.845 76.227 C 140.845 76.368,140.960 76.483,141.101 76.483 C 141.242 76.483,141.357 76.560,141.357 76.654 C 141.357 76.748,141.472 76.825,141.613 76.825 C 141.754 76.825,141.869 76.901,141.869 76.995 C 141.869 77.089,141.968 77.166,142.088 77.166 C 142.208 77.166,142.417 77.320,142.552 77.507 C 142.688 77.695,142.935 77.849,143.102 77.849 C 143.269 77.849,143.406 77.964,143.406 78.105 C 143.406 78.246,143.517 78.361,143.652 78.361 C 143.788 78.361,143.999 78.496,144.122 78.660 C 144.244 78.824,144.460 78.984,144.601 79.014 C 144.742 79.045,144.883 79.141,144.914 79.227 C 144.945 79.314,145.084 79.385,145.223 79.385 C 145.361 79.385,145.436 79.449,145.388 79.526 C 145.282 79.698,145.888 80.239,146.187 80.239 C 146.306 80.239,146.514 80.393,146.650 80.580 C 146.785 80.768,146.994 80.922,147.114 80.922 C 147.234 80.922,147.332 80.999,147.332 81.093 C 147.332 81.187,147.416 81.263,147.519 81.263 C 147.621 81.263,148.019 81.532,148.403 81.861 C 148.787 82.190,149.170 82.458,149.253 82.458 C 149.469 82.458,149.893 82.910,149.893 83.139 C 149.893 83.245,149.961 83.290,150.045 83.239 C 150.128 83.187,150.291 83.259,150.407 83.399 C 150.523 83.539,150.696 83.653,150.790 83.653 C 150.885 83.653,151.087 83.793,151.239 83.964 C 151.391 84.135,151.654 84.326,151.825 84.390 C 152.004 84.456,152.083 84.588,152.012 84.703 C 151.940 84.819,151.963 84.855,152.068 84.790 C 152.167 84.729,152.544 84.946,152.906 85.272 C 153.268 85.598,153.662 85.867,153.782 85.869 C 153.903 85.871,154.237 86.142,154.526 86.470 C 154.814 86.799,155.163 87.068,155.301 87.068 C 155.560 87.068,156.039 87.463,156.039 87.677 C 156.039 87.857,156.602 88.251,156.867 88.257 C 156.994 88.260,157.313 88.493,157.576 88.775 C 157.839 89.057,158.215 89.287,158.412 89.287 C 158.610 89.287,158.771 89.370,158.771 89.470 C 158.771 89.711,159.207 90.141,159.452 90.141 C 159.558 90.141,159.597 90.218,159.539 90.312 C 159.481 90.405,159.592 90.482,159.785 90.482 C 159.978 90.482,160.137 90.559,160.137 90.653 C 160.137 90.747,160.252 90.824,160.393 90.824 C 160.534 90.824,160.649 90.944,160.649 91.090 C 160.649 91.236,160.726 91.309,160.819 91.251 C 160.913 91.193,160.990 91.265,160.990 91.411 C 160.990 91.564,161.136 91.677,161.332 91.677 C 161.519 91.677,161.673 91.754,161.673 91.848 C 161.673 91.942,161.760 92.019,161.867 92.019 C 161.974 92.019,162.291 92.288,162.572 92.616 C 162.853 92.945,163.195 93.214,163.334 93.214 C 163.472 93.214,163.800 93.444,164.063 93.726 C 164.326 94.008,164.716 94.238,164.928 94.238 C 165.141 94.238,165.272 94.282,165.218 94.335 C 165.072 94.482,166.063 95.433,166.362 95.433 C 166.506 95.433,166.624 95.510,166.624 95.604 C 166.624 95.698,166.739 95.775,166.880 95.775 C 167.021 95.775,167.136 95.890,167.136 96.031 C 167.136 96.172,167.251 96.287,167.392 96.287 C 167.533 96.287,167.648 96.364,167.648 96.458 C 167.648 96.551,167.764 96.628,167.904 96.628 C 168.045 96.628,168.160 96.705,168.160 96.799 C 168.160 96.893,168.237 96.970,168.330 96.970 C 168.484 96.970,169.052 97.402,169.622 97.951 C 169.744 98.069,169.925 98.165,170.025 98.165 C 170.125 98.165,170.302 98.318,170.419 98.506 C 170.537 98.694,170.768 98.848,170.933 98.848 C 171.098 98.848,171.233 98.924,171.233 99.018 C 171.233 99.112,171.353 99.189,171.500 99.189 C 171.646 99.189,171.718 99.266,171.660 99.360 C 171.602 99.454,171.675 99.531,171.821 99.531 C 171.967 99.531,172.087 99.646,172.087 99.787 C 172.087 99.927,172.224 100.043,172.391 100.043 C 172.558 100.043,172.805 100.196,172.941 100.384 C 173.076 100.572,173.250 100.726,173.327 100.726 C 173.474 100.726,173.729 100.918,174.360 101.505 C 174.569 101.698,174.988 101.967,175.291 102.101 C 175.595 102.236,175.843 102.409,175.843 102.487 C 175.843 102.696,176.210 103.008,176.726 103.236 C 176.977 103.347,177.323 103.556,177.494 103.700 C 177.666 103.845,177.960 104.085,178.148 104.235 C 178.335 104.384,178.381 104.451,178.249 104.382 C 178.090 104.300,178.051 104.325,178.133 104.458 C 178.201 104.568,178.320 104.618,178.398 104.571 C 178.475 104.523,178.835 104.750,179.197 105.076 C 180.127 105.914,180.733 105.887,181.683 104.967 C 182.086 104.576,182.300 104.322,182.160 104.402 C 181.830 104.588,182.172 104.122,182.882 103.413 C 183.142 103.154,183.355 102.866,183.355 102.773 C 183.355 102.680,183.434 102.603,183.531 102.603 C 183.628 102.603,183.757 102.469,183.819 102.305 C 183.881 102.140,184.147 101.802,184.411 101.553 C 184.675 101.304,184.891 101.016,184.891 100.913 C 184.891 100.810,184.968 100.726,185.062 100.726 C 185.156 100.726,185.233 100.616,185.233 100.482 C 185.233 100.348,185.425 100.087,185.659 99.902 C 185.894 99.718,186.086 99.521,186.086 99.465 C 186.086 99.367,186.608 98.716,187.068 98.240 C 187.185 98.118,187.281 97.932,187.281 97.825 C 187.281 97.719,187.358 97.680,187.452 97.738 C 187.546 97.796,187.623 97.741,187.623 97.615 C 187.623 97.489,187.776 97.276,187.964 97.140 C 188.152 97.005,188.306 96.796,188.306 96.676 C 188.306 96.556,188.397 96.477,188.509 96.500 C 188.621 96.524,188.744 96.396,188.783 96.217 C 188.822 96.037,189.185 95.564,189.590 95.164 C 189.995 94.765,190.282 94.393,190.227 94.338 C 190.172 94.283,190.220 94.238,190.334 94.238 C 190.447 94.238,190.733 94.046,190.967 93.811 C 191.202 93.577,191.340 93.385,191.275 93.385 C 191.209 93.385,191.321 93.241,191.523 93.066 C 191.725 92.890,191.891 92.692,191.891 92.626 C 191.891 92.559,192.198 92.209,192.574 91.848 C 192.949 91.487,193.257 91.109,193.257 91.008 C 193.257 90.907,193.336 90.824,193.433 90.824 C 193.662 90.824,194.793 89.693,194.793 89.464 C 194.793 89.367,194.875 89.287,194.976 89.287 C 195.217 89.287,195.647 88.851,195.647 88.606 C 195.647 88.500,195.723 88.461,195.817 88.519 C 195.911 88.577,195.988 88.548,195.988 88.454 C 195.988 88.229,197.473 86.726,197.694 86.726 C 197.789 86.726,197.866 86.567,197.866 86.373 C 197.866 86.041,198.225 85.531,198.459 85.531 C 198.596 85.531,199.402 84.725,199.402 84.588 C 199.402 84.451,199.859 83.995,199.996 83.995 C 200.133 83.995,200.939 83.189,200.939 83.051 C 200.939 82.878,201.413 82.458,201.610 82.458 C 201.710 82.458,201.793 82.400,201.793 82.329 C 201.793 82.258,202.023 82.098,202.305 81.974 C 202.586 81.849,202.817 81.638,202.817 81.505 C 202.817 81.372,202.894 81.263,202.988 81.263 C 203.082 81.263,203.158 81.144,203.158 80.997 C 203.158 80.851,203.217 80.767,203.288 80.811 C 203.360 80.855,203.566 80.783,203.748 80.651 C 203.929 80.518,204.021 80.410,203.953 80.410 C 203.885 80.410,204.065 80.179,204.353 79.898 C 204.642 79.616,204.922 79.385,204.976 79.385 C 205.121 79.385,206.231 78.148,206.231 77.986 C 206.231 77.911,206.311 77.849,206.409 77.849 C 206.582 77.849,207.856 76.593,208.081 76.201 C 208.144 76.092,208.348 75.977,208.536 75.945 C 208.918 75.879,209.646 75.229,209.646 74.954 C 209.646 74.856,209.742 74.795,209.859 74.819 C 209.977 74.842,210.053 74.765,210.030 74.648 C 210.006 74.531,210.072 74.434,210.175 74.434 C 210.278 74.434,210.578 74.204,210.841 73.922 C 211.104 73.641,211.408 73.410,211.517 73.410 C 211.626 73.410,211.676 73.347,211.628 73.270 C 211.520 73.095,212.130 72.557,212.436 72.557 C 212.560 72.557,212.762 72.368,212.885 72.138 C 213.008 71.908,213.156 71.728,213.213 71.738 C 213.419 71.776,213.914 71.492,213.914 71.335 C 213.914 71.080,214.727 70.337,215.006 70.337 C 215.145 70.337,215.314 70.248,215.381 70.140 C 215.463 70.007,215.425 69.989,215.263 70.084 C 215.131 70.162,215.170 70.058,215.349 69.854 C 215.528 69.650,215.777 69.484,215.904 69.484 C 216.030 69.484,216.133 69.407,216.133 69.313 C 216.133 69.219,216.220 69.142,216.327 69.142 C 216.531 69.142,217.328 68.293,217.328 68.075 C 217.328 68.005,217.482 67.947,217.670 67.947 C 217.857 67.947,218.011 67.870,218.011 67.776 C 218.011 67.682,218.108 67.606,218.226 67.606 C 218.344 67.606,218.537 67.453,218.653 67.266 C 218.770 67.080,219.173 66.732,219.549 66.495 C 219.925 66.257,220.452 65.834,220.720 65.554 C 220.987 65.274,221.294 65.045,221.401 65.045 C 221.509 65.045,221.596 64.955,221.596 64.846 C 221.596 64.736,221.645 64.695,221.704 64.754 C 221.763 64.814,222.025 64.634,222.285 64.356 C 222.545 64.078,222.842 63.850,222.945 63.850 C 223.048 63.850,223.133 63.773,223.133 63.679 C 223.133 63.585,223.243 63.508,223.379 63.508 C 223.514 63.508,223.680 63.420,223.747 63.311 C 223.827 63.181,223.793 63.161,223.645 63.252 C 223.497 63.344,223.463 63.324,223.543 63.193 C 223.610 63.085,223.759 62.996,223.873 62.996 C 223.988 62.996,224.192 62.843,224.328 62.655 C 224.463 62.467,224.672 62.313,224.792 62.313 C 224.912 62.313,225.011 62.245,225.011 62.162 C 225.011 62.080,225.172 61.969,225.369 61.918 C 225.567 61.866,225.677 61.742,225.615 61.642 C 225.553 61.542,225.622 61.460,225.769 61.460 C 225.915 61.460,226.035 61.397,226.035 61.320 C 226.035 61.244,226.358 61.000,226.752 60.778 C 227.146 60.557,227.626 60.200,227.819 59.985 C 228.011 59.770,228.284 59.572,228.423 59.545 C 228.563 59.518,228.882 59.285,229.132 59.027 C 229.382 58.769,229.663 58.557,229.756 58.557 C 229.849 58.557,229.969 58.442,230.023 58.301 C 230.077 58.160,230.222 58.045,230.345 58.045 C 230.468 58.045,230.680 57.892,230.815 57.704 C 230.951 57.516,231.249 57.362,231.479 57.362 C 231.709 57.362,231.852 57.318,231.797 57.263 C 231.676 57.142,232.284 56.509,232.520 56.509 C 232.679 56.509,233.126 56.185,233.639 55.698 C 233.763 55.580,233.956 55.484,234.070 55.484 C 234.183 55.484,234.454 55.292,234.671 55.058 C 234.889 54.823,235.169 54.631,235.293 54.631 C 235.418 54.631,235.631 54.477,235.766 54.289 C 235.901 54.102,236.151 53.948,236.321 53.948 C 236.491 53.948,236.674 53.833,236.728 53.693 C 236.782 53.553,236.895 53.480,236.979 53.532 C 237.063 53.584,237.132 53.507,237.132 53.360 C 237.132 53.208,237.278 53.094,237.473 53.094 C 237.661 53.094,237.815 53.017,237.815 52.924 C 237.815 52.830,237.935 52.753,238.081 52.753 C 238.227 52.753,238.300 52.676,238.242 52.582 C 238.181 52.485,238.329 52.411,238.583 52.411 C 238.838 52.411,238.985 52.338,238.924 52.241 C 238.866 52.147,238.939 52.070,239.085 52.070 C 239.231 52.070,239.351 51.955,239.351 51.814 C 239.351 51.666,239.506 51.558,239.715 51.558 C 239.916 51.558,240.204 51.421,240.356 51.255 C 240.660 50.921,241.571 50.307,241.571 50.436 C 241.571 50.481,241.774 50.329,242.022 50.099 C 242.271 49.868,242.583 49.680,242.715 49.680 C 242.848 49.680,242.909 49.603,242.851 49.509 C 242.791 49.412,242.938 49.338,243.192 49.338 C 243.447 49.338,243.594 49.265,243.534 49.168 C 243.476 49.074,243.515 48.997,243.621 48.997 C 243.728 48.997,243.930 48.881,244.072 48.739 C 244.214 48.598,244.400 48.525,244.487 48.579 C 244.573 48.632,244.644 48.556,244.644 48.410 C 244.644 48.182,244.826 48.106,245.254 48.155 C 245.308 48.161,245.490 48.007,245.658 47.813 C 245.826 47.619,246.132 47.461,246.338 47.461 C 246.544 47.461,246.665 47.384,246.607 47.290 C 246.549 47.196,246.621 47.119,246.768 47.119 C 246.914 47.119,247.034 47.004,247.034 46.863 C 247.034 46.706,247.193 46.607,247.446 46.607 C 247.673 46.607,247.884 46.536,247.916 46.449 C 247.947 46.362,248.088 46.266,248.229 46.236 C 248.370 46.205,248.609 46.046,248.761 45.881 C 248.913 45.717,249.148 45.583,249.284 45.583 C 249.419 45.583,249.698 45.426,249.904 45.234 C 250.109 45.043,250.277 44.940,250.277 45.005 C 250.277 45.070,250.421 44.957,250.596 44.755 C 250.772 44.553,251.036 44.388,251.184 44.388 C 251.331 44.388,251.500 44.311,251.558 44.217 C 251.616 44.123,251.812 44.046,251.995 44.046 C 252.177 44.046,252.326 43.969,252.326 43.875 C 252.326 43.781,252.441 43.705,252.582 43.705 C 252.723 43.705,252.838 43.623,252.838 43.524 C 252.838 43.424,252.901 43.382,252.978 43.429 C 253.055 43.477,253.225 43.366,253.357 43.183 C 253.489 43.001,253.727 42.851,253.886 42.851 C 254.045 42.851,254.202 42.771,254.235 42.673 C 254.268 42.575,254.461 42.482,254.664 42.467 C 254.868 42.451,254.996 42.378,254.950 42.303 C 254.904 42.229,255.027 42.168,255.224 42.168 C 255.420 42.168,255.625 42.053,255.679 41.912 C 255.733 41.771,255.884 41.656,256.015 41.656 C 256.146 41.656,256.253 41.579,256.253 41.485 C 256.253 41.391,256.406 41.315,256.594 41.315 C 256.782 41.315,256.936 41.238,256.936 41.144 C 256.936 41.050,257.070 40.971,257.234 40.968 C 257.399 40.965,257.679 40.852,257.857 40.717 C 258.035 40.582,258.246 40.512,258.326 40.562 C 258.407 40.611,258.472 40.532,258.472 40.386 C 258.472 40.233,258.618 40.120,258.813 40.120 C 259.001 40.120,259.155 40.043,259.155 39.949 C 259.155 39.855,259.304 39.778,259.486 39.778 C 259.669 39.778,259.865 39.701,259.923 39.607 C 259.981 39.513,260.178 39.437,260.360 39.437 C 260.542 39.437,260.691 39.360,260.691 39.266 C 260.691 39.172,260.800 39.095,260.934 39.095 C 261.238 39.095,262.225 38.541,262.227 38.370 C 262.227 38.299,262.343 38.242,262.484 38.242 C 262.625 38.242,262.740 38.165,262.740 38.071 C 262.740 37.977,262.894 37.900,263.082 37.900 C 263.269 37.900,263.423 37.823,263.423 37.729 C 263.423 37.636,263.570 37.559,263.750 37.559 C 263.930 37.559,264.104 37.478,264.137 37.380 C 264.170 37.282,264.368 37.189,264.578 37.173 C 264.788 37.158,264.959 37.046,264.959 36.925 C 264.959 36.804,265.113 36.705,265.301 36.705 C 265.489 36.705,265.642 36.628,265.642 36.534 C 265.642 36.440,265.911 36.364,266.240 36.364 C 266.569 36.364,266.837 36.306,266.837 36.235 C 266.837 36.115,267.335 35.869,268.086 35.617 C 268.256 35.559,268.348 35.435,268.289 35.341 C 268.231 35.246,268.339 35.169,268.529 35.169 C 268.720 35.169,269.149 35.015,269.484 34.827 C 269.818 34.639,270.204 34.486,270.342 34.486 C 270.480 34.486,270.593 34.409,270.593 34.315 C 270.593 34.221,270.785 34.144,271.020 34.144 C 271.255 34.144,271.447 34.067,271.447 33.974 C 271.447 33.880,271.591 33.803,271.767 33.803 C 271.944 33.803,272.184 33.688,272.300 33.547 C 272.417 33.406,272.653 33.291,272.823 33.291 C 272.994 33.291,273.181 33.214,273.239 33.120 C 273.297 33.026,273.537 32.949,273.772 32.949 C 274.013 32.949,274.153 32.875,274.093 32.778 C 274.033 32.682,274.177 32.608,274.424 32.608 C 274.665 32.608,274.861 32.537,274.861 32.451 C 274.861 32.364,275.092 32.243,275.373 32.181 C 275.655 32.119,275.886 31.998,275.886 31.911 C 275.886 31.825,276.078 31.754,276.312 31.754 C 276.547 31.754,276.739 31.677,276.739 31.583 C 276.739 31.490,276.931 31.413,277.166 31.413 C 277.401 31.413,277.593 31.336,277.593 31.242 C 277.593 31.148,277.780 31.071,278.010 31.071 C 278.239 31.071,278.474 30.994,278.532 30.901 C 278.590 30.807,278.825 30.730,279.054 30.730 C 279.311 30.730,279.471 30.631,279.471 30.474 C 279.471 30.316,279.631 30.218,279.887 30.218 C 280.117 30.218,280.352 30.141,280.410 30.047 C 280.468 29.953,280.703 29.876,280.932 29.876 C 281.161 29.876,281.349 29.799,281.349 29.706 C 281.349 29.612,281.493 29.535,281.669 29.535 C 281.846 29.535,282.268 29.419,282.608 29.276 C 282.948 29.134,283.227 29.073,283.227 29.140 C 283.227 29.207,283.319 29.169,283.431 29.057 C 283.544 28.944,283.766 28.852,283.925 28.852 C 284.084 28.852,284.259 28.737,284.313 28.596 C 284.370 28.446,284.626 28.340,284.928 28.340 C 285.213 28.340,285.446 28.263,285.446 28.169 C 285.446 28.075,285.715 27.998,286.044 27.998 C 286.372 27.998,286.641 27.921,286.641 27.828 C 286.641 27.734,286.852 27.654,287.111 27.651 C 287.369 27.648,287.726 27.536,287.904 27.401 C 288.082 27.266,288.293 27.196,288.373 27.246 C 288.453 27.295,288.519 27.216,288.519 27.069 C 288.519 26.879,288.689 26.803,289.117 26.803 C 289.445 26.803,289.714 26.726,289.714 26.633 C 289.714 26.539,289.983 26.462,290.312 26.462 C 290.640 26.462,290.909 26.385,290.909 26.291 C 290.909 26.197,291.140 26.120,291.421 26.120 C 291.703 26.120,291.933 26.044,291.933 25.950 C 291.933 25.856,292.202 25.779,292.531 25.779 C 292.948 25.779,293.128 25.702,293.128 25.523 C 293.128 25.333,293.328 25.267,293.897 25.267 C 294.319 25.267,294.665 25.190,294.665 25.096 C 294.665 25.002,294.934 24.925,295.262 24.925 C 295.591 24.925,295.860 24.848,295.860 24.755 C 295.860 24.661,296.090 24.584,296.372 24.584 C 296.654 24.584,296.884 24.507,296.884 24.413 C 296.884 24.319,297.187 24.242,297.557 24.242 C 297.927 24.242,298.277 24.166,298.335 24.072 C 298.393 23.978,298.603 23.901,298.802 23.901 C 299.000 23.901,299.285 23.790,299.435 23.654 C 299.585 23.518,300.033 23.388,300.430 23.365 C 300.827 23.341,301.152 23.260,301.152 23.185 C 301.152 23.109,301.383 23.047,301.665 23.047 C 301.946 23.047,302.177 22.971,302.177 22.877 C 302.177 22.783,302.518 22.706,302.935 22.706 C 303.352 22.706,303.741 22.629,303.799 22.535 C 303.857 22.441,304.207 22.364,304.577 22.364 C 305.061 22.364,305.250 22.293,305.250 22.108 C 305.250 21.919,305.449 21.852,306.018 21.852 C 306.440 21.852,306.786 21.776,306.786 21.682 C 306.786 21.588,307.213 21.511,307.735 21.511 C 308.324 21.511,308.644 21.446,308.579 21.340 C 308.514 21.235,308.800 21.169,309.323 21.169 C 309.790 21.169,310.198 21.099,310.229 21.014 C 310.260 20.928,310.708 20.828,311.225 20.792 C 311.838 20.748,312.149 20.654,312.121 20.521 C 312.092 20.379,312.396 20.316,313.103 20.316 C 313.672 20.316,314.127 20.240,314.127 20.145 C 314.127 20.051,314.550 19.974,315.066 19.974 C 315.583 19.974,316.005 19.898,316.005 19.804 C 316.005 19.708,316.484 19.633,317.101 19.633 C 317.703 19.633,318.222 19.561,318.253 19.474 C 318.284 19.386,318.809 19.288,319.420 19.257 C 320.182 19.217,320.516 19.133,320.487 18.989 C 320.456 18.837,320.821 18.779,321.810 18.779 C 322.606 18.779,323.175 18.708,323.175 18.609 C 323.175 18.510,323.705 18.438,324.422 18.438 C 325.107 18.438,325.741 18.366,325.830 18.278 C 325.919 18.191,326.741 18.100,327.657 18.076 C 328.572 18.052,329.321 17.970,329.321 17.894 C 329.321 17.818,330.166 17.755,331.199 17.755 C 332.337 17.755,333.077 17.688,333.077 17.584 C 333.077 17.490,333.346 17.414,333.675 17.414 C 334.225 17.414,334.272 17.454,334.272 17.926 C 334.272 18.207,334.195 18.438,334.102 18.438 C 334.008 18.438,333.931 18.673,333.931 18.960 C 333.931 19.265,333.860 19.438,333.760 19.377 C 333.654 19.311,333.589 19.631,333.589 20.220 C 333.589 21.126,334.394 21.725,334.642 21.004 C 334.673 20.913,334.949 20.820,335.254 20.797 C 335.571 20.773,335.809 20.661,335.809 20.536 C 335.809 20.398,336.033 20.316,336.406 20.316 C 336.735 20.316,337.004 20.239,337.004 20.145 C 337.004 20.051,337.234 19.974,337.516 19.974 C 337.798 19.974,338.028 19.898,338.028 19.804 C 338.028 19.710,338.297 19.633,338.626 19.633 C 338.954 19.633,339.223 19.556,339.223 19.462 C 339.223 19.368,339.492 19.292,339.821 19.292 C 340.238 19.292,340.418 19.214,340.418 19.035 C 340.418 18.853,340.604 18.779,341.067 18.779 C 341.424 18.779,341.789 18.709,341.878 18.623 C 341.967 18.538,342.232 18.442,342.467 18.410 C 342.702 18.378,342.935 18.297,342.986 18.230 C 343.036 18.163,343.325 18.089,343.626 18.066 C 343.927 18.043,344.174 17.963,344.174 17.889 C 344.174 17.815,344.443 17.755,344.772 17.755 C 345.341 17.755,345.369 17.727,345.369 17.157 C 345.369 16.829,345.308 16.579,345.233 16.603 C 345.020 16.669,343.833 16.172,343.833 16.016 C 343.833 15.940,343.564 15.877,343.235 15.877 C 342.907 15.877,342.638 15.800,342.638 15.706 C 342.638 15.612,342.446 15.536,342.211 15.536 C 341.968 15.536,341.802 15.447,341.827 15.330 C 341.868 15.133,341.775 15.093,341.176 15.045 C 341.030 15.033,340.958 14.947,341.016 14.853 C 341.077 14.753,340.904 14.682,340.599 14.682 C 340.312 14.682,340.077 14.605,340.077 14.511 C 340.077 14.417,339.885 14.341,339.650 14.341 C 339.415 14.341,339.223 14.264,339.223 14.170 C 339.223 14.076,339.076 13.999,338.896 13.999 C 338.545 13.999,337.468 13.486,337.374 13.274 C 337.342 13.203,337.131 13.146,336.904 13.146 C 336.677 13.146,336.492 13.069,336.492 12.975 C 336.492 12.881,336.338 12.804,336.150 12.804 C 335.962 12.804,335.809 12.727,335.809 12.633 C 335.809 12.539,335.751 12.472,335.681 12.483 C 335.149 12.567,334.614 12.428,334.614 12.207 C 334.614 12.064,334.462 11.950,334.272 11.950 C 334.085 11.950,333.931 11.870,333.931 11.772 C 333.931 11.669,333.613 11.610,333.178 11.632 C 332.538 11.665,332.435 11.720,332.489 11.999 M296.368 140.252 C 296.253 140.391,296.015 140.504,295.839 140.504 C 295.663 140.504,295.519 140.580,295.519 140.674 C 295.519 140.768,295.403 140.845,295.262 140.845 C 295.122 140.845,295.006 140.922,295.006 141.016 C 295.006 141.110,294.896 141.187,294.762 141.187 C 294.627 141.187,294.464 141.356,294.398 141.563 C 294.272 141.959,293.919 142.382,293.714 142.382 C 293.452 142.382,293.139 143.008,293.134 143.544 C 293.131 143.876,293.058 144.065,292.958 144.003 C 292.846 143.934,292.787 145.510,292.787 148.603 C 292.787 151.626,292.848 153.308,292.958 153.308 C 293.052 153.308,293.128 153.542,293.128 153.827 C 293.128 154.145,293.294 154.526,293.555 154.807 C 293.790 155.060,293.982 155.329,293.982 155.405 C 293.982 155.606,294.789 156.381,294.999 156.381 C 295.097 156.381,295.177 156.458,295.177 156.551 C 295.177 156.645,295.295 156.722,295.439 156.722 C 295.582 156.722,295.738 156.821,295.784 156.942 C 295.831 157.063,296.114 157.181,296.413 157.204 C 296.712 157.227,297.003 157.320,297.060 157.412 C 297.125 157.518,299.906 157.563,304.663 157.535 L 312.164 157.490 312.164 155.271 L 312.164 153.052 305.598 153.007 C 301.564 152.979,298.966 152.897,298.863 152.793 C 298.770 152.701,298.479 152.625,298.216 152.625 C 297.797 152.625,297.738 152.561,297.738 152.103 C 297.738 151.798,297.667 151.624,297.567 151.686 C 297.456 151.755,297.397 150.749,297.397 148.794 C 297.397 146.909,297.460 145.796,297.567 145.796 C 297.661 145.796,297.738 145.637,297.738 145.442 C 297.738 144.601,297.738 144.601,305.224 144.601 L 312.223 144.601 312.193 142.339 L 312.164 140.077 304.370 140.039 C 297.685 140.006,296.547 140.037,296.368 140.252 M316.593 140.242 C 316.410 140.380,316.144 140.495,316.000 140.498 C 315.857 140.501,315.628 140.657,315.493 140.845 C 315.358 141.033,315.115 141.187,314.953 141.187 C 314.792 141.187,314.605 141.275,314.538 141.384 C 314.457 141.514,314.491 141.534,314.639 141.443 C 314.787 141.351,314.822 141.371,314.741 141.502 C 314.674 141.610,314.504 141.699,314.363 141.699 C 314.222 141.699,314.149 141.766,314.200 141.849 C 314.251 141.932,314.065 142.258,313.786 142.575 C 313.507 142.891,313.278 143.323,313.276 143.534 C 313.275 143.745,313.201 143.918,313.113 143.918 C 313.016 143.918,312.946 145.799,312.938 148.613 C 312.928 151.718,312.983 153.308,313.098 153.308 C 313.195 153.308,313.274 153.541,313.274 153.825 C 313.274 154.113,313.380 154.384,313.514 154.435 C 313.646 154.486,313.855 154.771,313.978 155.070 C 314.222 155.663,314.861 156.381,315.144 156.381 C 315.242 156.381,315.323 156.438,315.323 156.509 C 315.325 156.726,316.351 157.234,316.787 157.234 C 317.014 157.234,317.200 157.313,317.200 157.409 C 317.200 157.900,331.301 157.452,331.594 156.952 C 331.670 156.821,331.792 156.752,331.865 156.797 C 331.938 156.842,332.279 156.613,332.623 156.288 C 332.967 155.963,333.298 155.698,333.358 155.698 C 333.548 155.698,333.920 155.111,333.925 154.802 C 333.928 154.637,334.008 154.503,334.102 154.503 C 334.195 154.503,334.272 154.349,334.272 154.161 C 334.272 153.974,334.349 153.820,334.443 153.820 C 334.553 153.820,334.614 152.056,334.614 148.869 C 334.614 145.682,334.553 143.918,334.443 143.918 C 334.349 143.918,334.272 143.645,334.272 143.310 C 334.272 142.949,334.203 142.746,334.102 142.808 C 334.008 142.866,333.931 142.836,333.931 142.742 C 333.931 142.647,333.739 142.363,333.504 142.109 C 333.269 141.856,333.077 141.545,333.077 141.418 C 333.077 141.291,332.941 141.187,332.773 141.187 C 332.606 141.187,332.359 141.033,332.224 140.845 C 332.088 140.657,331.800 140.504,331.583 140.504 C 331.366 140.504,331.144 140.388,331.090 140.248 C 330.944 139.867,317.096 139.862,316.593 140.242 M335.467 148.793 L 335.467 157.556 337.932 157.556 L 340.397 157.556 340.413 153.258 C 340.422 150.734,340.497 148.893,340.594 148.796 C 340.701 148.689,340.760 148.733,340.760 148.920 C 340.760 149.080,340.837 149.210,340.930 149.210 C 341.024 149.210,341.101 149.315,341.101 149.443 C 341.101 149.570,341.293 149.819,341.528 149.995 C 341.769 150.176,341.955 150.489,341.955 150.712 C 341.955 150.933,342.030 151.062,342.125 151.003 C 342.219 150.945,342.296 151.011,342.296 151.149 C 342.296 151.288,342.377 151.428,342.476 151.461 C 342.575 151.494,342.675 151.652,342.699 151.812 C 342.722 151.972,342.807 152.163,342.888 152.236 C 342.968 152.309,342.971 152.261,342.895 152.129 C 342.801 151.968,342.820 151.929,342.953 152.011 C 343.061 152.078,343.150 152.227,343.150 152.341 C 343.150 152.456,343.303 152.660,343.491 152.796 C 343.679 152.931,343.833 153.170,343.833 153.327 C 343.833 153.485,344.023 153.794,344.257 154.015 C 344.490 154.236,344.682 154.513,344.683 154.631 C 344.685 154.748,344.763 154.844,344.857 154.844 C 344.951 154.844,345.028 154.964,345.028 155.110 C 345.028 155.257,345.105 155.329,345.198 155.271 C 345.292 155.213,345.369 155.324,345.369 155.517 C 345.369 155.864,346.622 157.234,346.938 157.234 C 347.158 157.234,347.589 156.790,347.589 156.564 C 347.589 156.463,347.665 156.381,347.759 156.381 C 347.853 156.381,347.930 156.261,347.930 156.115 C 347.930 155.968,348.002 155.893,348.091 155.948 C 348.179 156.002,348.380 155.777,348.537 155.446 C 348.694 155.115,348.891 154.844,348.974 154.844 C 349.057 154.844,349.125 154.719,349.125 154.565 C 349.125 154.411,349.312 154.112,349.541 153.900 C 349.770 153.688,349.911 153.468,349.854 153.411 C 349.798 153.354,349.879 153.308,350.036 153.308 C 350.198 153.308,350.320 153.173,350.320 152.993 C 350.320 152.820,350.474 152.539,350.662 152.369 C 350.849 152.199,351.003 151.953,351.003 151.822 C 351.003 151.692,351.195 151.393,351.430 151.158 C 351.665 150.923,351.857 150.669,351.857 150.594 C 351.857 150.518,352.068 150.228,352.326 149.949 C 352.584 149.671,352.821 149.334,352.852 149.200 C 353.156 147.893,353.314 149.034,353.393 153.100 L 353.478 157.490 355.869 157.490 L 358.259 157.490 358.259 148.784 L 358.259 140.077 356.039 140.028 C 353.463 139.970,353.052 140.036,353.052 140.507 C 353.052 140.694,352.937 140.845,352.796 140.845 C 352.655 140.845,352.539 140.965,352.539 141.111 C 352.539 141.258,352.463 141.330,352.369 141.272 C 352.274 141.213,352.198 141.343,352.198 141.566 C 352.198 141.785,352.044 142.075,351.857 142.211 C 351.669 142.346,351.515 142.520,351.515 142.597 C 351.515 142.739,351.369 142.936,350.747 143.635 C 350.559 143.846,350.381 144.126,350.352 144.257 C 350.323 144.387,350.112 144.655,349.883 144.852 C 349.654 145.048,349.466 145.329,349.466 145.476 C 349.466 145.623,349.320 145.876,349.141 146.038 C 348.961 146.200,348.722 146.558,348.608 146.833 C 348.494 147.108,348.333 147.332,348.251 147.332 C 348.168 147.332,348.101 147.448,348.101 147.589 C 348.101 147.729,348.009 147.825,347.897 147.802 C 347.786 147.778,347.661 147.912,347.621 148.098 C 347.564 148.364,346.989 149.040,346.820 149.040 C 346.639 149.040,346.052 148.338,346.052 148.122 C 346.052 147.968,345.822 147.600,345.540 147.306 C 345.258 147.011,345.028 146.663,345.028 146.534 C 345.028 146.404,344.913 146.253,344.772 146.199 C 344.631 146.145,344.516 145.951,344.516 145.768 C 344.516 145.584,344.439 145.482,344.345 145.540 C 344.251 145.598,344.174 145.475,344.174 145.265 C 344.174 145.056,344.124 144.935,344.063 144.997 C 343.912 145.148,343.503 144.586,343.497 144.217 C 343.494 144.052,343.409 143.918,343.308 143.918 C 343.004 143.918,342.638 143.453,342.638 143.067 C 342.638 142.867,342.561 142.750,342.467 142.808 C 342.373 142.866,342.296 142.827,342.296 142.721 C 342.296 142.615,342.180 142.412,342.039 142.270 C 341.897 142.129,341.832 141.930,341.894 141.829 C 341.960 141.724,341.928 141.695,341.819 141.762 C 341.715 141.827,341.550 141.729,341.452 141.546 C 341.354 141.363,341.178 141.108,341.060 140.979 C 340.942 140.851,340.760 140.595,340.655 140.411 C 340.481 140.105,340.256 140.075,337.966 140.054 L 335.467 140.031 335.467 148.793 M329.664 145.056 L 330.175 145.511 330.175 148.708 C 330.175 151.393,330.134 151.921,329.919 152.004 C 329.778 152.058,329.663 152.220,329.663 152.363 C 329.663 152.540,329.497 152.625,329.151 152.625 C 328.869 152.625,328.638 152.702,328.638 152.796 C 328.638 152.905,326.931 152.966,323.858 152.966 C 320.785 152.966,319.078 152.905,319.078 152.796 C 319.078 152.702,318.809 152.625,318.481 152.625 C 317.997 152.625,317.883 152.560,317.883 152.283 C 317.883 152.096,317.806 151.942,317.712 151.942 C 317.605 151.942,317.542 150.804,317.542 148.869 C 317.542 146.934,317.605 145.796,317.712 145.796 C 317.806 145.796,317.883 145.639,317.883 145.447 C 317.883 144.624,317.952 144.614,323.732 144.607 L 329.154 144.601 329.664 145.056 M286.374 153.190 C 286.327 153.312,286.310 154.330,286.337 155.452 L 286.385 157.490 289.159 157.537 L 291.933 157.584 291.933 155.275 L 291.933 152.966 289.197 152.966 C 287.100 152.966,286.440 153.019,286.374 153.190 " stroke="none" fill="#f48424" fill-rule="evenodd"></path><path id="path1" d="M192.659 53.436 C 192.590 53.548,186.828 53.606,175.928 53.606 C 165.029 53.606,159.267 53.665,159.198 53.777 C 159.135 53.878,158.086 53.948,156.627 53.948 C 154.275 53.948,154.161 53.964,154.161 54.289 C 154.161 54.592,154.275 54.631,155.171 54.631 C 155.776 54.631,156.208 54.709,156.246 54.825 C 156.283 54.935,156.829 55.055,157.498 55.100 C 158.151 55.145,158.815 55.249,158.973 55.333 C 159.131 55.416,159.727 55.484,160.296 55.484 C 160.873 55.484,161.332 55.560,161.332 55.655 C 161.332 55.753,161.840 55.826,162.517 55.826 C 163.168 55.826,163.749 55.903,163.807 55.997 C 163.865 56.090,164.446 56.167,165.098 56.167 C 165.774 56.167,166.283 56.241,166.283 56.338 C 166.283 56.435,166.790 56.509,167.463 56.509 C 168.234 56.509,168.668 56.580,168.713 56.715 C 168.755 56.842,169.264 56.947,170.050 56.988 C 170.748 57.025,171.392 57.125,171.481 57.209 C 171.570 57.293,172.166 57.362,172.804 57.362 C 173.464 57.362,173.965 57.436,173.965 57.533 C 173.965 57.630,174.474 57.704,175.150 57.704 C 175.802 57.704,176.382 57.781,176.440 57.875 C 176.498 57.968,177.046 58.045,177.658 58.045 C 178.365 58.045,178.854 58.129,179.001 58.276 C 179.142 58.418,179.683 58.519,180.397 58.539 C 181.038 58.556,181.588 58.644,181.619 58.734 C 181.650 58.825,182.169 58.899,182.771 58.899 C 183.388 58.899,183.867 58.973,183.867 59.070 C 183.867 59.168,184.404 59.240,185.137 59.240 C 185.836 59.240,186.455 59.317,186.513 59.411 C 186.571 59.505,187.145 59.582,187.789 59.582 C 188.514 59.582,188.985 59.656,189.025 59.776 C 189.062 59.886,189.606 60.005,190.277 60.049 C 190.930 60.092,191.537 60.196,191.626 60.281 C 191.715 60.366,192.306 60.435,192.939 60.435 C 193.572 60.435,194.137 60.512,194.195 60.606 C 194.254 60.700,194.796 60.777,195.401 60.777 C 196.020 60.777,196.500 60.851,196.500 60.948 C 196.500 61.046,197.041 61.118,197.781 61.118 C 198.520 61.118,199.061 61.190,199.061 61.289 C 199.061 61.385,199.563 61.462,200.213 61.465 C 200.955 61.469,201.484 61.560,201.697 61.721 C 202.453 62.293,204.222 61.786,205.328 60.681 C 205.462 60.546,205.630 60.435,205.699 60.435 C 205.769 60.435,205.978 60.293,206.164 60.120 C 206.350 59.947,208.304 58.566,210.507 57.052 C 215.649 53.517,215.611 53.544,215.616 53.393 C 215.624 53.192,192.783 53.234,192.659 53.436 M40.332 99.573 L 40.376 134.614 77.547 134.657 L 114.718 134.700 114.811 134.315 C 114.863 134.104,114.883 130.282,114.857 125.822 L 114.810 117.712 86.086 117.669 L 57.362 117.626 57.362 112.846 L 57.362 108.067 77.678 108.067 C 96.912 108.067,97.994 108.051,97.997 107.768 C 98.043 103.611,97.971 91.266,97.901 91.152 C 97.842 91.057,89.750 90.994,77.583 90.994 L 57.362 90.994 57.362 86.214 L 57.362 81.434 85.915 81.432 C 101.620 81.430,114.641 81.383,114.853 81.326 L 115.237 81.224 115.237 72.983 L 115.237 64.743 114.853 64.640 C 114.641 64.584,97.778 64.536,77.379 64.535 L 40.289 64.533 40.332 99.573 M283.268 72.940 L 283.312 81.349 312.207 81.392 L 341.101 81.435 341.101 86.215 L 341.101 90.994 320.785 90.994 L 300.469 90.994 300.469 99.531 L 300.469 108.067 320.785 108.067 L 341.101 108.067 341.101 112.847 L 341.101 117.627 312.162 117.627 L 283.223 117.627 283.268 126.120 L 283.312 134.614 320.572 134.657 L 357.833 134.700 357.790 99.659 L 357.746 64.618 320.485 64.575 L 283.223 64.532 283.268 72.940 M244.893 65.600 C 244.848 65.717,244.831 69.539,244.855 74.093 L 244.900 82.373 252.623 82.417 L 260.347 82.462 260.391 108.993 C 260.415 123.585,260.499 135.588,260.578 135.667 C 260.764 135.852,277.179 135.852,277.365 135.667 C 277.595 135.437,277.631 65.893,277.401 65.617 C 277.129 65.289,245.018 65.272,244.893 65.600 " stroke="none" fill="#5c5c5c" fill-rule="evenodd"></path><path id="path2" d="M343.150 25.181 C 343.150 25.341,342.989 25.437,342.723 25.437 C 342.488 25.437,342.296 25.514,342.296 25.608 C 342.296 25.702,342.070 25.779,341.794 25.779 C 341.518 25.779,341.245 25.856,341.187 25.950 C 341.128 26.044,340.855 26.120,340.579 26.120 C 340.303 26.120,340.077 26.197,340.077 26.291 C 340.077 26.385,339.808 26.462,339.479 26.462 C 339.062 26.462,338.882 26.539,338.882 26.718 C 338.882 26.914,338.664 26.974,337.943 26.974 C 337.222 26.974,337.004 26.914,337.004 26.718 C 337.004 26.509,336.719 26.462,335.467 26.462 C 334.215 26.462,333.931 26.509,333.931 26.718 C 333.931 26.860,333.779 26.974,333.589 26.974 C 333.402 26.974,333.248 27.051,333.248 27.145 C 333.248 27.239,333.133 27.315,332.992 27.315 C 332.603 27.315,332.603 50.323,332.992 50.472 C 333.182 50.545,333.248 50.847,333.248 51.643 C 333.248 52.440,333.182 52.742,332.992 52.815 C 332.397 53.043,332.651 55.500,333.330 56.084 C 333.656 56.364,333.925 56.655,333.927 56.730 C 333.933 56.932,334.741 57.704,334.947 57.704 C 335.046 57.704,335.126 57.781,335.126 57.875 C 335.126 57.968,335.271 58.045,335.449 58.045 C 335.627 58.045,335.816 58.160,335.871 58.301 C 336.057 58.787,338.251 58.652,338.642 58.131 C 338.819 57.896,339.098 57.704,339.264 57.704 C 339.429 57.704,339.565 57.627,339.565 57.533 C 339.565 57.439,339.680 57.362,339.821 57.362 C 339.962 57.362,340.077 57.286,340.077 57.192 C 340.077 57.098,340.230 57.021,340.418 57.021 C 340.608 57.021,340.760 56.907,340.760 56.765 C 340.760 56.623,340.911 56.509,341.101 56.509 C 341.289 56.509,341.443 56.432,341.443 56.338 C 341.443 56.244,341.635 56.167,341.869 56.167 C 342.104 56.167,342.296 56.090,342.296 55.997 C 342.296 55.903,342.443 55.826,342.623 55.826 C 342.803 55.826,342.989 55.730,343.037 55.612 C 343.106 55.442,343.126 55.442,343.136 55.612 C 343.153 55.869,344.516 55.911,344.516 55.655 C 344.516 55.561,344.828 55.484,345.211 55.484 C 345.881 55.484,346.394 55.194,346.394 54.814 C 346.394 54.713,346.476 54.631,346.576 54.631 C 346.991 54.631,347.247 54.114,347.247 53.277 C 347.247 52.801,347.170 52.411,347.076 52.411 C 346.983 52.411,346.906 52.214,346.906 51.972 C 346.906 51.660,346.589 51.218,345.803 50.436 L 344.700 49.338 343.219 49.338 C 341.858 49.338,341.706 49.373,341.342 49.765 C 341.125 50.000,340.828 50.192,340.683 50.192 C 340.537 50.192,340.418 50.260,340.418 50.344 C 340.418 50.428,340.149 50.528,339.821 50.566 L 339.223 50.636 339.223 49.121 C 339.223 47.508,339.387 47.119,340.065 47.119 C 340.265 47.119,340.418 47.008,340.418 46.863 C 340.418 46.721,340.570 46.607,340.760 46.607 C 340.948 46.607,341.101 46.530,341.101 46.436 C 341.101 46.342,341.293 46.265,341.528 46.265 C 341.763 46.265,341.955 46.342,341.955 46.436 C 341.955 46.530,342.300 46.607,342.723 46.607 C 343.146 46.607,343.491 46.530,343.491 46.436 C 343.491 46.342,343.759 46.265,344.087 46.265 C 344.700 46.265,345.369 45.845,345.369 45.459 C 345.369 45.339,345.446 45.241,345.540 45.241 C 345.639 45.241,345.711 44.698,345.711 43.953 C 345.711 42.665,345.310 41.827,344.694 41.827 C 344.596 41.827,344.516 41.744,344.516 41.644 C 344.516 41.372,344.066 40.973,343.760 40.973 C 343.612 40.973,343.491 40.896,343.491 40.802 C 343.491 40.708,343.299 40.632,343.064 40.632 C 342.830 40.632,342.638 40.555,342.638 40.461 C 342.638 40.362,342.097 40.290,341.357 40.290 C 340.617 40.290,340.077 40.362,340.077 40.461 C 340.077 40.555,339.962 40.632,339.821 40.632 C 339.680 40.632,339.565 40.708,339.565 40.802 C 339.565 40.896,339.488 40.973,339.394 40.973 C 339.300 40.973,339.223 40.627,339.223 40.205 C 339.223 39.782,339.146 39.437,339.052 39.437 C 338.947 39.437,338.882 38.555,338.882 37.132 C 338.882 35.709,338.947 34.827,339.052 34.827 C 339.146 34.827,339.223 34.438,339.223 33.961 C 339.223 33.024,339.482 32.608,340.065 32.608 C 340.259 32.608,340.418 32.531,340.418 32.437 C 340.418 32.343,340.649 32.266,340.930 32.266 C 341.272 32.266,341.443 32.181,341.443 32.010 C 341.443 31.831,341.623 31.754,342.040 31.754 C 342.369 31.754,342.638 31.677,342.638 31.583 C 342.638 31.482,343.264 31.413,344.174 31.413 C 345.085 31.413,345.711 31.343,345.711 31.242 C 345.711 31.148,345.980 31.071,346.308 31.071 C 346.637 31.071,346.906 30.994,346.906 30.901 C 346.906 30.807,347.059 30.730,347.247 30.730 C 347.498 30.730,347.589 30.616,347.589 30.303 C 347.589 30.068,347.665 29.876,347.759 29.876 C 347.853 29.876,347.930 29.454,347.930 28.937 C 347.930 28.421,347.853 27.998,347.759 27.998 C 347.665 27.998,347.589 27.768,347.589 27.486 C 347.589 27.204,347.512 26.974,347.418 26.974 C 347.324 26.974,347.247 26.892,347.247 26.791 C 347.247 26.595,346.828 26.120,346.654 26.120 C 346.477 26.120,345.711 25.294,345.711 25.104 C 345.711 24.995,345.207 24.925,344.430 24.925 C 343.406 24.925,343.150 24.977,343.150 25.181 M362.953 25.181 C 362.953 25.328,362.800 25.437,362.595 25.437 C 362.398 25.437,362.022 25.668,361.758 25.950 C 361.426 26.306,361.119 26.462,360.751 26.462 C 360.395 26.462,360.222 26.545,360.222 26.718 C 360.222 26.897,360.042 26.974,359.624 26.974 C 359.296 26.974,359.027 27.051,359.027 27.145 C 359.027 27.239,358.796 27.315,358.515 27.315 C 358.233 27.315,358.003 27.392,358.003 27.486 C 358.003 27.580,357.734 27.657,357.405 27.657 C 357.076 27.657,356.808 27.734,356.808 27.828 C 356.808 27.921,356.539 27.998,356.210 27.998 C 355.881 27.998,355.612 28.075,355.612 28.169 C 355.612 28.263,355.349 28.340,355.027 28.340 C 354.705 28.340,354.327 28.455,354.186 28.596 C 354.045 28.737,353.732 28.852,353.491 28.852 C 353.249 28.852,353.052 28.929,353.052 29.023 C 353.052 29.117,352.783 29.193,352.454 29.193 C 352.125 29.193,351.857 29.270,351.857 29.364 C 351.857 29.458,351.631 29.535,351.355 29.535 C 351.078 29.535,350.805 29.612,350.747 29.706 C 350.689 29.799,350.492 29.876,350.310 29.876 C 350.128 29.876,349.979 29.986,349.979 30.120 C 349.979 30.255,349.806 30.389,349.595 30.419 C 349.175 30.479,348.876 32.949,349.288 32.949 C 349.386 32.949,349.466 33.073,349.466 33.225 C 349.466 33.612,350.761 34.827,351.174 34.827 C 351.362 34.827,351.515 34.904,351.515 34.998 C 351.515 35.092,351.669 35.169,351.857 35.169 C 352.046 35.169,352.198 35.282,352.198 35.425 C 352.198 35.604,352.378 35.681,352.796 35.681 C 353.213 35.681,353.393 35.604,353.393 35.425 C 353.393 35.254,353.564 35.169,353.905 35.169 L 354.417 35.169 354.417 44.350 C 354.417 53.335,354.410 53.536,354.076 53.777 C 353.888 53.913,353.735 54.160,353.735 54.327 C 353.735 54.494,353.658 54.631,353.564 54.631 C 353.470 54.631,353.393 55.053,353.393 55.570 C 353.393 56.086,353.470 56.509,353.564 56.509 C 353.658 56.509,353.735 56.673,353.735 56.874 C 353.735 57.253,354.168 57.689,354.553 57.698 C 354.675 57.701,354.966 57.896,355.201 58.131 C 355.436 58.365,355.817 58.557,356.047 58.557 C 356.277 58.557,356.466 58.634,356.466 58.728 C 356.466 58.980,359.416 58.943,359.906 58.685 C 361.087 58.064,361.417 57.500,361.417 56.101 C 361.417 55.094,361.358 54.768,361.161 54.693 C 361.015 54.637,360.905 54.382,360.905 54.100 C 360.905 53.829,360.828 53.606,360.734 53.606 C 360.626 53.606,360.563 52.355,360.563 50.192 C 360.563 48.030,360.501 46.778,360.393 46.778 C 360.282 46.778,360.222 44.440,360.222 40.107 C 360.222 32.797,360.200 32.949,361.234 32.949 C 361.522 32.949,361.758 32.872,361.758 32.778 C 361.758 32.685,361.912 32.608,362.100 32.608 C 362.288 32.608,362.441 32.531,362.441 32.437 C 362.441 32.343,362.628 32.266,362.856 32.266 C 363.084 32.266,363.386 32.151,363.527 32.010 C 363.714 31.822,364.173 31.754,365.246 31.754 C 366.108 31.754,366.709 31.684,366.709 31.583 C 366.709 31.490,366.863 31.413,367.051 31.413 C 367.278 31.413,367.392 31.299,367.392 31.071 C 367.392 30.883,367.469 30.730,367.563 30.730 C 367.663 30.730,367.734 30.161,367.734 29.364 C 367.734 28.567,367.663 27.998,367.563 27.998 C 367.469 27.998,367.392 27.862,367.392 27.695 C 367.392 27.527,367.239 27.280,367.051 27.145 C 366.863 27.009,366.709 26.833,366.709 26.753 C 366.709 26.565,366.264 26.120,366.076 26.120 C 365.996 26.120,365.820 25.967,365.685 25.779 C 365.550 25.591,365.310 25.437,365.153 25.437 C 364.996 25.437,364.824 25.322,364.770 25.181 C 364.700 25.001,364.418 24.925,363.812 24.925 C 363.163 24.925,362.953 24.988,362.953 25.181 M373.239 25.869 C 372.903 26.228,372.855 26.460,372.855 27.736 C 372.855 28.918,372.807 29.193,372.599 29.193 C 372.458 29.193,372.343 29.342,372.343 29.525 C 372.343 29.707,372.266 29.904,372.172 29.962 C 372.079 30.020,372.002 30.293,372.002 30.569 C 372.002 30.845,371.925 31.071,371.831 31.071 C 371.737 31.071,371.660 31.263,371.660 31.498 C 371.660 31.733,371.583 31.925,371.490 31.925 C 371.396 31.925,371.319 32.147,371.319 32.419 C 371.319 32.700,371.209 32.955,371.063 33.011 C 370.913 33.068,370.807 33.324,370.807 33.627 C 370.807 33.911,370.730 34.144,370.636 34.144 C 370.542 34.144,370.465 34.413,370.465 34.742 C 370.465 35.070,370.388 35.339,370.294 35.339 C 370.201 35.339,370.124 35.570,370.124 35.851 C 370.124 36.133,370.047 36.364,369.953 36.364 C 369.859 36.364,369.782 36.633,369.782 36.961 C 369.782 37.290,369.706 37.559,369.612 37.559 C 369.518 37.559,369.441 37.828,369.441 38.156 C 369.441 38.574,369.364 38.754,369.185 38.754 C 368.995 38.754,368.929 38.953,368.929 39.522 C 368.929 39.945,368.852 40.290,368.758 40.290 C 368.664 40.290,368.587 40.521,368.587 40.802 C 368.587 41.084,368.510 41.315,368.417 41.315 C 368.323 41.315,368.246 41.660,368.246 42.083 C 368.246 42.505,368.169 42.851,368.075 42.851 C 367.981 42.851,367.904 43.197,367.904 43.619 C 367.904 44.188,367.838 44.388,367.648 44.388 C 367.459 44.388,367.392 44.587,367.392 45.156 C 367.392 45.578,367.315 45.924,367.222 45.924 C 367.128 45.924,367.051 46.270,367.051 46.692 C 367.051 47.115,366.974 47.461,366.880 47.461 C 366.786 47.461,366.709 47.883,366.709 48.399 C 366.709 48.916,366.633 49.338,366.539 49.338 C 366.445 49.338,366.368 49.651,366.368 50.034 C 366.368 50.424,366.256 50.841,366.112 50.985 C 365.961 51.135,365.856 51.552,365.856 51.997 C 365.856 52.413,365.779 52.753,365.685 52.753 C 365.591 52.753,365.514 52.868,365.514 53.009 C 365.514 53.150,365.437 53.265,365.344 53.265 C 365.250 53.265,365.173 53.419,365.173 53.606 C 365.173 53.794,365.096 53.948,365.002 53.948 C 364.906 53.948,364.831 54.432,364.831 55.058 C 364.831 55.684,364.906 56.167,365.002 56.167 C 365.096 56.167,365.175 56.302,365.178 56.466 C 365.185 56.835,365.570 57.362,365.832 57.362 C 365.939 57.362,366.026 57.439,366.026 57.533 C 366.026 57.627,366.180 57.704,366.368 57.704 C 366.556 57.704,366.709 57.781,366.709 57.875 C 366.709 57.976,367.335 58.045,368.246 58.045 C 369.156 58.045,369.782 57.976,369.782 57.875 C 369.782 57.781,369.903 57.704,370.051 57.704 C 370.476 57.704,370.807 57.261,370.807 56.692 C 370.807 56.339,370.891 56.167,371.063 56.167 C 371.267 56.167,371.319 55.912,371.319 54.897 C 371.319 54.198,371.396 53.579,371.490 53.521 C 371.583 53.463,371.660 53.223,371.660 52.987 C 371.660 52.370,372.047 52.070,372.843 52.070 C 373.347 52.070,373.538 52.000,373.538 51.814 C 373.538 51.613,373.775 51.558,374.648 51.558 C 375.274 51.558,375.758 51.483,375.758 51.387 C 375.758 51.290,376.270 51.216,376.953 51.216 C 377.636 51.216,378.148 51.143,378.148 51.046 C 378.148 50.952,378.301 50.875,378.489 50.875 C 378.717 50.875,378.831 50.989,378.831 51.216 C 378.831 51.406,378.944 51.558,379.087 51.558 C 379.246 51.558,379.343 51.719,379.343 51.985 C 379.343 52.219,379.420 52.411,379.513 52.411 C 379.607 52.411,379.684 52.642,379.684 52.924 C 379.684 53.205,379.761 53.436,379.855 53.436 C 379.949 53.436,380.026 53.628,380.026 53.863 C 380.026 54.097,380.102 54.289,380.196 54.289 C 380.290 54.289,380.367 54.443,380.367 54.631 C 380.367 54.819,380.444 54.972,380.538 54.972 C 380.632 54.972,380.708 55.318,380.708 55.741 C 380.708 56.310,380.775 56.509,380.965 56.509 C 381.110 56.509,381.221 56.662,381.221 56.862 C 381.221 57.281,381.600 57.704,381.977 57.704 C 382.124 57.704,382.245 57.781,382.245 57.875 C 382.245 58.299,386.328 58.075,386.777 57.626 C 387.463 56.940,387.404 54.621,386.684 53.948 C 386.402 53.685,386.172 53.344,386.172 53.191 C 386.172 53.038,386.056 52.869,385.915 52.815 C 385.775 52.761,385.659 52.588,385.659 52.431 C 385.659 52.274,385.506 52.035,385.318 51.899 C 385.121 51.757,384.977 51.457,384.977 51.189 C 384.977 50.933,384.900 50.677,384.806 50.619 C 384.388 50.361,384.711 50.192,385.621 50.192 C 386.640 50.192,387.196 49.860,387.196 49.251 C 387.196 49.111,387.273 48.997,387.367 48.997 C 387.468 48.997,387.537 48.371,387.537 47.461 C 387.537 46.550,387.468 45.924,387.367 45.924 C 387.273 45.924,387.196 45.808,387.196 45.666 C 387.196 44.845,386.288 44.388,384.659 44.388 C 383.733 44.388,383.099 44.457,383.099 44.558 C 383.099 44.652,382.983 44.729,382.843 44.729 C 382.700 44.729,382.586 44.577,382.586 44.388 C 382.586 44.200,382.510 44.046,382.416 44.046 C 382.322 44.046,382.245 43.700,382.245 43.278 C 382.245 42.855,382.168 42.510,382.074 42.510 C 381.980 42.510,381.904 42.241,381.904 41.912 C 381.904 41.583,381.827 41.315,381.733 41.315 C 381.639 41.315,381.562 40.935,381.562 40.471 C 381.562 40.007,381.485 39.580,381.391 39.522 C 381.297 39.464,381.221 39.111,381.221 38.738 C 381.221 38.293,381.133 38.026,380.965 37.962 C 380.781 37.891,380.708 37.604,380.708 36.943 C 380.708 36.437,380.632 36.022,380.538 36.022 C 380.444 36.022,380.367 35.600,380.367 35.083 C 380.367 34.567,380.290 34.144,380.196 34.144 C 380.100 34.144,380.026 33.661,380.026 33.035 C 380.026 32.409,379.951 31.925,379.855 31.925 C 379.761 31.925,379.684 31.661,379.684 31.337 C 379.684 31.014,379.761 30.703,379.855 30.644 C 379.949 30.586,380.026 30.313,380.026 30.037 C 380.026 29.761,380.102 29.535,380.196 29.535 C 380.293 29.535,380.367 29.051,380.367 28.425 C 380.367 27.799,380.293 27.315,380.196 27.315 C 380.102 27.315,380.026 27.156,380.026 26.962 C 380.026 26.584,379.656 26.120,379.355 26.120 C 379.254 26.120,379.172 26.044,379.172 25.950 C 379.172 25.856,379.018 25.779,378.831 25.779 C 378.643 25.779,378.489 25.702,378.489 25.608 C 378.489 25.186,373.654 25.426,373.239 25.869 M312.120 26.459 C 312.003 26.646,311.908 26.983,311.908 27.209 C 311.908 27.435,311.793 27.665,311.652 27.719 C 311.490 27.780,311.396 28.042,311.396 28.425 C 311.396 28.808,311.490 29.070,311.652 29.132 C 311.826 29.198,311.908 29.471,311.908 29.980 C 311.908 30.392,311.985 30.730,312.079 30.730 C 312.172 30.730,312.249 30.883,312.249 31.071 C 312.249 31.259,312.326 31.413,312.420 31.413 C 312.531 31.413,312.591 33.543,312.591 37.463 C 312.591 41.313,312.653 43.552,312.761 43.619 C 312.866 43.684,312.932 45.069,312.932 47.204 C 312.932 49.340,312.998 50.725,313.103 50.790 C 313.197 50.848,313.274 51.313,313.274 51.824 C 313.274 52.335,313.197 52.753,313.103 52.753 C 313.009 52.753,312.932 52.868,312.932 53.009 C 312.932 53.150,312.855 53.265,312.761 53.265 C 312.665 53.265,312.591 53.749,312.591 54.375 C 312.591 54.985,312.649 55.484,312.720 55.484 C 312.791 55.484,312.951 55.715,313.075 55.997 C 313.200 56.278,313.411 56.509,313.544 56.509 C 313.677 56.509,313.786 56.589,313.786 56.687 C 313.786 56.919,314.571 57.704,314.802 57.704 C 314.900 57.704,314.981 57.781,314.981 57.875 C 314.981 57.968,315.134 58.045,315.322 58.045 C 315.512 58.045,315.664 58.159,315.664 58.301 C 315.664 58.442,315.813 58.557,315.995 58.557 C 316.177 58.557,316.374 58.634,316.432 58.728 C 316.490 58.822,317.230 58.899,318.076 58.899 L 319.615 58.899 320.456 58.049 C 320.919 57.581,321.297 57.044,321.297 56.854 C 321.297 56.664,321.374 56.509,321.468 56.509 C 321.562 56.509,321.639 56.355,321.639 56.167 C 321.639 55.978,321.753 55.826,321.895 55.826 C 322.037 55.826,322.151 55.674,322.151 55.484 C 322.151 55.297,322.228 55.143,322.322 55.143 C 322.416 55.143,322.493 55.069,322.493 54.978 C 322.493 54.888,323.530 53.781,324.797 52.518 C 326.065 51.256,327.102 50.132,327.102 50.020 C 327.102 49.908,327.332 49.602,327.614 49.338 C 327.896 49.075,328.126 48.699,328.126 48.502 C 328.126 48.305,328.235 48.143,328.368 48.143 C 328.501 48.143,328.712 47.913,328.837 47.631 C 328.961 47.350,329.121 47.119,329.192 47.119 C 329.263 47.119,329.321 46.850,329.321 46.522 C 329.321 46.193,329.398 45.924,329.492 45.924 C 329.596 45.924,329.663 45.127,329.663 43.875 C 329.663 42.623,329.596 41.827,329.492 41.827 C 329.398 41.827,329.321 41.692,329.321 41.528 C 329.321 41.085,328.568 40.290,328.149 40.290 C 327.939 40.290,327.785 40.182,327.785 40.034 C 327.785 39.892,327.633 39.778,327.443 39.778 C 327.256 39.778,327.102 39.701,327.102 39.607 C 327.102 39.513,326.833 39.437,326.504 39.437 C 326.176 39.437,325.907 39.360,325.907 39.266 C 325.907 39.172,325.671 39.095,325.383 39.095 C 324.908 39.095,324.370 38.778,324.370 38.498 C 324.370 38.355,324.826 37.900,324.968 37.900 C 325.145 37.900,325.566 37.428,325.566 37.229 C 325.566 37.129,325.642 37.047,325.736 37.047 C 325.830 37.047,325.907 36.910,325.907 36.743 C 325.907 36.576,326.061 36.328,326.248 36.193 C 326.436 36.058,326.590 35.772,326.590 35.558 C 326.590 35.326,326.693 35.169,326.846 35.169 C 326.987 35.169,327.102 35.019,327.102 34.837 C 327.102 34.655,327.179 34.458,327.273 34.400 C 327.367 34.342,327.443 34.069,327.443 33.793 C 327.443 33.517,327.520 33.291,327.614 33.291 C 327.720 33.291,327.785 32.383,327.785 30.911 C 327.785 29.508,327.715 28.487,327.614 28.425 C 327.520 28.367,327.443 28.203,327.443 28.061 C 327.443 27.803,327.053 27.315,326.846 27.315 C 326.669 27.315,326.248 26.844,326.248 26.645 C 326.248 26.544,326.018 26.462,325.736 26.462 C 325.455 26.462,325.224 26.385,325.224 26.291 C 325.224 26.187,324.431 26.120,323.185 26.120 C 322.011 26.120,321.102 26.193,321.041 26.291 C 320.983 26.385,320.595 26.462,320.178 26.462 C 319.618 26.462,319.420 26.529,319.420 26.718 C 319.420 26.897,319.239 26.974,318.822 26.974 C 318.493 26.974,318.224 27.051,318.224 27.145 C 318.224 27.239,317.994 27.315,317.712 27.315 C 317.431 27.315,317.200 27.239,317.200 27.145 C 317.200 27.051,317.085 26.974,316.944 26.974 C 316.803 26.974,316.688 26.859,316.688 26.718 C 316.688 26.576,316.536 26.462,316.347 26.462 C 316.159 26.462,316.005 26.385,316.005 26.291 C 316.005 25.924,312.355 26.082,312.120 26.459 M321.297 32.181 C 321.297 32.416,321.221 32.608,321.127 32.608 C 321.033 32.608,320.956 32.761,320.956 32.949 C 320.956 33.137,320.879 33.291,320.785 33.291 C 320.691 33.291,320.615 33.406,320.615 33.547 C 320.615 33.688,320.538 33.803,320.444 33.803 C 320.350 33.803,320.273 33.956,320.273 34.144 C 320.273 34.334,320.159 34.486,320.017 34.486 C 319.876 34.486,319.761 34.550,319.761 34.629 C 319.761 34.708,319.415 35.139,318.993 35.586 L 318.224 36.399 318.224 34.845 C 318.224 33.577,318.272 33.291,318.481 33.291 C 318.621 33.291,318.737 33.214,318.737 33.120 C 318.737 33.026,318.873 32.949,319.040 32.949 C 319.207 32.949,319.455 32.796,319.590 32.608 C 319.726 32.420,320.008 32.266,320.219 32.266 C 320.429 32.266,320.700 32.154,320.821 32.017 C 321.146 31.649,321.297 31.701,321.297 32.181 M375.416 39.607 C 375.416 39.889,375.493 40.120,375.587 40.120 C 375.681 40.120,375.758 40.498,375.758 40.961 C 375.758 41.481,375.855 41.900,376.014 42.058 C 376.157 42.202,376.270 42.619,376.270 43.010 C 376.270 43.392,376.347 43.705,376.440 43.705 C 376.534 43.705,376.611 44.044,376.611 44.459 C 376.611 44.907,376.697 45.241,376.823 45.283 C 377.344 45.457,376.452 45.924,375.599 45.924 C 375.123 45.924,374.733 46.001,374.733 46.095 C 374.733 46.189,374.388 46.265,373.965 46.265 L 373.197 46.265 373.197 45.497 C 373.197 45.075,373.274 44.729,373.367 44.729 C 373.461 44.729,373.538 44.383,373.538 43.961 C 373.538 43.538,373.615 43.192,373.709 43.192 C 373.803 43.192,373.880 42.962,373.880 42.680 C 373.880 42.399,373.956 42.168,374.050 42.168 C 374.144 42.168,374.221 41.899,374.221 41.571 C 374.221 41.153,374.298 40.973,374.477 40.973 C 374.637 40.973,374.733 40.812,374.733 40.546 C 374.733 40.312,374.810 40.120,374.904 40.120 C 374.998 40.120,375.075 39.889,375.075 39.607 C 375.075 39.326,375.152 39.095,375.245 39.095 C 375.339 39.095,375.416 39.326,375.416 39.607 M323.047 44.284 C 323.415 44.563,323.445 45.241,323.090 45.241 C 322.949 45.241,322.834 45.378,322.834 45.545 C 322.834 45.712,322.680 45.959,322.493 46.095 C 322.305 46.230,322.151 46.421,322.151 46.519 C 322.151 46.617,321.959 46.841,321.724 47.017 C 321.490 47.193,321.297 47.442,321.297 47.570 C 321.297 47.697,321.201 47.802,321.082 47.802 C 320.964 47.802,320.638 48.069,320.357 48.396 C 320.076 48.722,319.767 48.991,319.671 48.993 C 319.574 48.995,319.384 49.151,319.249 49.338 C 318.809 49.948,318.737 49.711,318.737 47.669 C 318.737 45.854,318.770 45.634,319.078 45.412 C 319.266 45.277,319.420 45.067,319.420 44.947 C 319.420 44.827,319.612 44.729,319.846 44.729 C 320.081 44.729,320.273 44.652,320.273 44.558 C 320.273 44.464,320.504 44.388,320.785 44.388 C 321.067 44.388,321.297 44.311,321.297 44.217 C 321.297 43.966,322.699 44.019,323.047 44.284 M98.073 99.445 C 98.073 103.764,98.095 105.507,98.122 103.317 C 98.149 101.128,98.149 97.594,98.122 95.464 C 98.095 93.334,98.073 95.126,98.073 99.445 M260.404 135.465 C 260.425 135.664,260.580 135.819,260.779 135.840 C 261.025 135.865,261.039 135.851,260.830 135.788 C 260.671 135.741,260.503 135.573,260.456 135.414 C 260.393 135.205,260.379 135.219,260.404 135.465 M277.422 135.426 C 277.422 135.576,277.288 135.734,277.123 135.776 C 276.843 135.850,276.844 135.856,277.129 135.874 C 277.437 135.894,277.723 135.456,277.529 135.261 C 277.470 135.202,277.422 135.277,277.422 135.426 " stroke="none" fill="#040404" fill-rule="evenodd"></path><path id="path3" d="M215.365 53.634 C 215.177 53.827,214.612 54.249,214.109 54.573 C 212.600 55.545,206.512 59.797,206.156 60.128 C 205.974 60.297,205.769 60.435,205.699 60.435 C 205.630 60.435,205.471 60.536,205.347 60.658 C 205.223 60.781,204.816 61.088,204.442 61.341 C 204.068 61.594,203.848 61.801,203.954 61.801 C 204.059 61.801,204.595 61.470,205.146 61.066 C 206.386 60.154,211.077 56.883,213.871 54.982 C 215.021 54.199,215.962 53.493,215.962 53.412 C 215.962 53.174,215.731 53.261,215.365 53.634 " stroke="none" fill="#8e7661" fill-rule="evenodd"></path><path id="path4" d="M215.962 53.412 C 215.962 53.493,214.459 54.585,212.621 55.839 C 209.332 58.083,208.935 58.387,209.294 58.387 C 209.394 58.387,209.475 58.310,209.475 58.216 C 209.475 58.122,209.590 58.045,209.731 58.045 C 209.872 58.045,209.987 57.981,209.987 57.901 C 209.987 57.822,210.256 57.613,210.585 57.436 C 210.913 57.259,211.182 57.055,211.182 56.982 C 211.182 56.910,211.283 56.850,211.406 56.850 C 211.529 56.850,211.795 56.697,211.997 56.509 C 212.198 56.321,212.437 56.167,212.527 56.167 C 212.617 56.167,212.716 56.110,212.747 56.039 C 212.778 55.969,213.553 55.414,214.469 54.806 C 215.845 53.892,216.488 53.265,216.048 53.265 C 216.001 53.265,215.962 53.331,215.962 53.412 M206.824 59.878 C 205.700 60.688,204.511 61.498,204.183 61.678 C 203.590 62.004,203.590 62.006,204.097 61.891 C 204.379 61.828,204.635 61.705,204.666 61.618 C 204.698 61.531,204.793 61.460,204.878 61.460 C 205.058 61.460,207.143 59.910,207.227 59.714 C 207.259 59.641,207.393 59.582,207.526 59.582 C 207.659 59.582,207.768 59.505,207.768 59.411 C 207.768 59.317,207.864 59.238,207.981 59.235 C 208.230 59.228,209.046 58.583,208.939 58.477 C 208.900 58.438,207.948 59.068,206.824 59.878 " stroke="none" fill="#d08834" fill-rule="evenodd"></path></g></svg>